<?xml version="1.0" encoding="utf-8"?>
<!-- Generator: Adobe Illustrator 28.1.0, SVG Export Plug-In . SVG Version: 6.00 Build 0)  -->
<svg version="1.1" id="Layer_1" xmlns="http://www.w3.org/2000/svg" xmlns:xlink="http://www.w3.org/1999/xlink" x="0px" y="0px"
	 viewBox="0 0 1742 1081" style="enable-background:new 0 0 1742 1081;" xml:space="preserve">
<style type="text/css">
	.st0{fill:#FFFFFF;}
</style>
<path class="st0" d="M1539.9,60.8c20.9,14.5,31.2,36,35.7,60.6c2.4,14.3,2.8,28.2,2.8,42.6c0,1.1,0,2.2,0,3.3
	c-0.1,18.7-0.8,37.1-3.3,55.7c-0.1,0.7-0.2,1.5-0.3,2.3c-10.4,77.5-32.1,154.8-62.7,226.7c-0.5,1.1-0.9,2.2-1.4,3.3
	c-6.7,15.8-14.1,31.3-21.6,46.7c-0.4,0.9-0.9,1.8-1.3,2.7c-6.2,12.7-12.9,25-19.9,37.3c-1.8,3.2-3.7,6.4-5.5,9.7
	c-10.5,18.4-21.4,36.2-33.7,53.3c-8.1,10.9-8.1,10.9-11,23.8c0,1.1,0.1,2.2,0.1,3.3c0.1,1.3,0.2,2.6,0.3,4c0,0.8,0.1,1.6,0.1,2.4
	c1.6,27.5,7.2,54,19.9,78.6c0.3,0.7,0.7,1.3,1,2c5.1,9.8,11,18.5,18,27c0.5,0.6,0.9,1.2,1.4,1.8c11,13.6,25.3,28.7,43.6,31.2
	c7.5,0.7,13.6-1.5,19.5-5.9c58-50.3,85-162.3,103.8-232.9c1.9-7,3.8-14,5.7-21c0.7-2.6,1.4-5.2,2.1-7.7c7.4-27.4,7.4-27.4,15.8-34.5
	c3.1-0.7,5.9-0.6,9,0c3.3,2.5,4.7,4.1,6,8c4.3,40.2-13.7,84.4-26.6,121.8c-1.3,3.8-2.6,7.6-3.9,11.5
	c-57.6,170.5-57.6,170.5-110,196.7c-13.3,6.4-30,5.8-44,1.4c-15.2-5.9-27.7-14.2-39.6-25.4c-0.7-0.6-1.3-1.2-2-1.8
	c-28-26.3-44.3-67.2-51.4-104.2c-0.3-2.9-0.3-2.9-1.6-4c-0.5,1-1,2.1-1.5,3.2c-5.1,10.9-10.3,21.8-15.5,32.6
	c-0.9,1.9-1.8,3.8-2.7,5.6c-15.2,31.9-37.2,65.9-71.4,79.4c-12,3.6-26,1.1-37.1-4c-21-11.4-32.4-32.2-39.2-54.3
	c-5.5-18.6-6.8-37.1-6.7-56.3c0-1.5,0-3,0-4.4c0-3.6,0-7.2,0-10.7c-0.3,0.7-0.5,1.3-0.8,2c-7.2,18.4-15.4,36.3-24.2,54
	c-0.4,0.8-0.8,1.6-1.2,2.4c-12.5,25.4-30,52.2-57.1,62.9c-11.3,2.1-21.7,0.9-31.6-5c-30.1-20.8-41.6-63.3-48.1-97.3
	c-2.6-15.3-4.3-30.6-6-46c-0.2,0.6-0.4,1.1-0.6,1.7c-38,110.8-38,110.8-56.4,133.3c-1.1,1.3-1.1,1.3-2.2,2.7
	C974,793,962.6,801,949,803c-17.2,1.1-31.9-2.9-45.2-14.1C880,766,872.1,731.9,871,700c0-2.8,0-5.6,0-8.5c0-0.7,0-1.5,0-2.2
	c0-1.8,0-3.6,0-5.3c-0.3,0.8-0.6,1.6-1,2.4c-6,15.2-12,30.4-19,45.3c-1.1,2.4-2.2,4.7-3.2,7.1c-25.2,55-25.2,55-49.3,64.6
	c-11.8,3.1-25.6-0.1-36.1-5.8c-23.1-15-35.5-44.5-44.4-69.6c-1.9,2.8-2.7,4.9-3.8,8.1c-9.9,29.9-23.7,69.1-53.6,84.9
	c-8.3,4.2-15.7,6.3-24.9,6.2c-0.7,0-1.5,0-2.2,0c-16.6-0.4-28.2-7.9-39.5-19.4C573.1,784.3,569.3,747,567,717
	c-0.1-0.7-0.1-1.4-0.2-2.1c-5.9-73.9,13-144.7,37.2-213.9c0.2-0.7,0.5-1.4,0.8-2.2c27.1-77.9,27.1-77.9,47.2-91.8
	c17.5-5.8,41.6,3.3,57.4,10.8c0.9,0.4,0.9,0.4,1.9,0.9c10.8,5.4,16.5,13.3,21.8,23.9c1.2,2.3,2.4,4.6,3.6,6.9c1.5,3,3.1,6,4.6,8.9
	c1,2,2,4,3.1,5.9c0.5,1,1,2.1,1.6,3.1c4,4.8,11.8,6.1,17.8,7.9c0.7,0.2,1.4,0.4,2.1,0.7c2.2,0.7,4.4,1.4,6.6,2
	c2.2,0.7,4.4,1.4,6.6,2c1.4,0.4,2.7,0.8,4.1,1.3c4.7,1.4,4.7,1.4,6.9,2.6c-0.6,6.7-2.8,12.6-5,18.9c-21.9,64.4-48.4,155.7-32,223.1
	c0.2,0.8,0.4,1.7,0.6,2.6c3.8,15.5,8.5,32.9,22.3,42.4c4.9,1.6,9.4,2.1,14.2,0.1c2.1-1.2,4-2.6,5.9-4.1c0.6-0.4,1.1-0.9,1.7-1.4
	c44.3-40,60.4-130.6,76.5-185.8c0.2-0.6,0.4-1.3,0.6-1.9c1.3-4.3,2.5-8.6,3.8-12.9c0.3-1.1,0.6-2.2,1-3.3
	c3.1-10.7,4.9-20.8,5.9-31.9c0.1-1.4,0.3-2.8,0.4-4.1c0.3-2.9,0.5-5.8,0.8-8.7c0.3-3.6,0.7-7.2,1-10.8c0.3-2.8,0.5-5.7,0.8-8.5
	c0.1-1.4,0.3-2.8,0.4-4.2c0.7-7.6,1.3-15.1,1.6-22.7c0.1-1.3,0.1-2.6,0.2-3.9c0.1-2.4,0.2-4.8,0.2-7.2c0.4-7.7,0.4-7.7,3-10.5
	c2-1.3,4-2.3,6.2-3.2c1.1-0.4,2.2-0.9,3.3-1.3c5.2-1,10.3-1,15.6-1c1,0,2.1,0,3.1,0c9.4,0,17.3,1.4,24.8,7.4c2.5,4,2.6,8.3,1.8,12.8
	c-0.8,3.3-1.7,6.6-2.6,9.9c-0.5,1.9-1,3.8-1.5,5.7c-0.5,2-1.1,4.1-1.6,6.1c-1.9,7.1-3.7,14.3-5.6,21.4c-0.3,1.1-0.3,1.1-0.6,2.2
	c-15,59-25.9,122.4-25.9,183.5c0,0.8,0,1.6,0,2.4c0,21.2,0.3,48.1,15.8,64.6c6.4,5.6,13.1,7.7,21.5,7.4c8.2-1.8,13.8-9.3,18.3-16
	c12.7-20.1,21.1-42.1,28.9-64.5c0.9-2.4,1.7-4.8,2.6-7.2c2-5.8,4.1-11.5,6.1-17.3c1.7-4.8,3.3-9.5,5-14.3c2.7-7.6,5.4-15.2,8-22.8
	c0.7-2,1.4-3.9,2.1-5.9c8.5-24.2,16.7-48.4,23.9-73c0.4-1.3,0.8-2.6,1.2-4c3.7-12.2,5.3-24.3,6.7-36.9c0.5-4.1,0.9-8.2,1.4-12.3
	c0.9-8.1,1.8-16.2,2.8-24.3c4.6-40.7,9.3-81.4,14.4-122c0.4-3.2,0.8-6.4,1.2-9.6c0.6-5,1.2-10,1.9-15c0.2-1.8,0.5-3.7,0.7-5.5
	c0.3-2.5,0.6-5,0.9-7.5c0.1-0.7,0.2-1.4,0.3-2.2c0.5-3.6,1-7.1,1.8-10.6c-10.9-0.7-21.9-1.2-32.8-1.5c-1.1,0-1.1,0-2.1-0.1
	c-3-0.1-6-0.2-9-0.3c-3.9-0.1-7.7-0.2-11.6-0.3c-8.6-0.3-17.2-0.5-25.7-0.7c-4-0.1-8-0.2-12-0.3c-19.3-0.6-36-0.3-54.4,6.6
	c-2.8,0.6-4.6,0.3-7.3-0.5c-1.7-1.3-1.7-1.3-3.3-2.8c-3.7-3.3-7.5-5.3-12-7.3c-1.5-0.7-3-1.4-4.5-2c-0.7-0.3-1.4-0.6-2.2-1
	c-2.7-1.2-5.3-2.4-7.9-3.7c-0.7-0.4-1.5-0.7-2.2-1.1c-3.5-2.1-4.7-3.5-5.9-7.5c0-3.6,0-3.6,2.2-6.5c4.5-3.5,8.7-3.3,14.1-3.5
	c0.9,0,1.7,0,2.6-0.1c2.9-0.1,5.8-0.2,8.7-0.2c2.1-0.1,4.1-0.1,6.2-0.2c4.4-0.1,8.8-0.2,13.2-0.4c11.6-0.3,23.2-0.6,34.8-1
	c1.2,0,2.3-0.1,3.6-0.1c24.1-0.7,48.3-1.5,72.4-2.4c0.9,0,1.8-0.1,2.7-0.1c10.8-0.4,21.6-0.8,32.4-1.2c0.7-8.8,1.3-17.5,2-26.3
	c0.3-4.1,0.6-8.1,0.9-12.2c0.3-3.9,0.6-7.9,0.9-11.8c0.1-1.5,0.2-3,0.3-4.5c1.9-18.7,1.9-18.7-1.6-36.9c-3-8-3-8-1.4-11.4
	c2.6-3.2,5-4.9,9-6c12.2-1.2,23,3.8,33.8,8.9c0.9,0.4,1.7,0.8,2.6,1.2c2.6,1.2,5.1,2.5,7.5,3.9c0.8,0.4,1.5,0.7,2.3,1.1
	c3.6,2,6.2,3.4,7.5,7.4c0.3,3.2,0.3,6.2,0.1,9.4c0,1.2-0.1,2.4-0.1,3.6c-0.6,14-3.6,27.5-6.8,41c-0.8,3.4-1.6,6.8-2.3,10.2
	c-4.3,19-4.3,19-5.7,23.3c1,0,1,0,2.1,0c47.5,0.6,95,1.6,142.5,2.8c9,0.2,18,0.5,27.1,0.7c7.9,0.2,15.8,0.4,23.7,0.6
	c1.2,0,1.2,0,2.5,0.1c17,0.4,34,0.9,51,1.3c1.5,0,3,0.1,4.5,0.1c10.6,0.3,21.1,0.7,31.7,1.4c0,3,0,5.9,0,9
	c-5.9,3.2-11.4,5.2-17.9,6.8c-1,0.2-2.1,0.5-3.1,0.7c-38.3,8.7-78.2,14.7-117.5,14.6c-1.7,0-3.4,0-5.1,0c-4.6,0-9.2,0-13.8,0
	c-4.8,0-9.7,0-14.5,0c-9.1,0-18.3,0-27.4,0c-10.4,0-20.8,0-31.3,0c-21.4,0-42.8,0-64.2-0.1c-5.2,44-10.2,88-15,132.1
	c-0.6,5.1-1.1,10.2-1.7,15.3c-1.7,15.6-3.4,31.3-5.1,46.9c-0.8,7.4-1.6,14.7-2.4,22.1c-3.4,29.9-4.5,59.3-4.2,89.4
	c0,4.4,0,8.8,0.1,13.2c-0.2,39.5-0.2,39.5,2.6,78.8c0.1,1.1,0.3,2.2,0.4,3.3c2.2,17.9,5.2,41.1,20.1,53.2c4.8,3.1,9.9,4.2,15.5,3.2
	c16.4-4.7,26.3-21,34.2-35.1c25.8-47.1,41.6-99.6,56.3-151c0.3-1,0.6-2.1,0.9-3.1c1.8-6.4,3.6-12.9,5.4-19.4c0.3-1.2,0.6-2.4,1-3.6
	c2.9-12.2,3.5-24.8,4.6-37.2c0.2-2.4,0.4-4.7,0.6-7.1c0.1-1.2,0.2-2.3,0.3-3.5c0.2-2.3,0.4-4.7,0.6-7c0.5-6,0.9-11.9,1.2-18
	c0.1-1.2,0.1-2.4,0.2-3.6c0.1-2.3,0.2-4.5,0.2-6.8c0.4-7.3,0.4-7.3,3-10c7.9-5.1,15.9-5.6,25.1-5.5c1,0,2.1,0,3.1,0
	c8,0,16,0.7,22.6,5.7c2.5,2.7,3.5,4.2,4.5,7.6c-0.1,2.5-0.1,2.5-0.7,5c-0.2,1-0.4,1.9-0.6,2.9c-1.2,5.2-2.5,10.4-3.9,15.6
	c-0.6,2.5-1.3,4.9-1.9,7.4c-0.5,1.9-0.5,1.9-1,3.9c-7.1,27.6-13.2,55.2-18,83.2c-0.2,0.9-0.3,1.9-0.5,2.9
	c-4.5,26.6-8.1,53.2-10.5,80.1c-0.2,1.7-0.2,1.7-0.3,3.5c-0.8,10.2-0.9,20.4-0.9,30.6c0,0.9,0,1.8,0,2.7c0,22.2,0.2,47.5,15.8,65
	c4.9,4.7,10.7,6.9,17.5,7.4c13.4-0.9,24-13.7,32.3-23c2.9-3.5,5.5-7.1,8.1-10.8c0.4-0.6,0.8-1.2,1.2-1.8
	c9.4-13.9,16.6-29.1,24.1-44.1c1-2,2-3.9,2.9-5.9c9.2-18.4,9.2-18.4,17.9-37c1.3-2.5,1.3-2.5,3.1-5.2c6.8-11.1,6.1-22.5,6-35.2
	c-0.1-6.1,0-12.1,0-18.2c0-2.1,0-4.1,0-6.2c0.6-95.4,17.1-191.9,37.1-299.7c0.2-1.1,0.4-2.1,0.6-3.2c8.7-45.9,18.7-91.6,33.1-136.1
	c3.1-9.6,5.3-18.8,6.7-28.8c2.7-19,6.1-42.6,22.3-55.3C1496.6,45.5,1523.4,50.8,1539.9,60.8z M1520,94c-33.1,97.9-63,196.8-104,466
	c2.9-2.7,5-5.3,7-8.7c0.5-0.9,1.1-1.9,1.7-2.8c0.6-1,1.2-2,1.8-3.1c0.9-1.6,0.9-1.6,1.9-3.2c12.3-21.4,23.1-43.5,32.8-66.2
	c0.5-1.1,0.5-1.1,0.9-2.2c16-37.5,29.8-75.9,42.4-114.7c0.7-2.2,1.4-4.3,2.1-6.5c23.5-72.4,57.2-176.2,21.5-249.3
	c-1.7-3.3-3.5-6.5-5.9-9.3C1521.3,94,1520.7,94,1520,94z M669.1,455.1c-15.8,21.8-22,50.4-30.1,75.6c-6,18.5-6,18.5-9,27
	c-6.3,17.9-10.6,35.7-14,54.3c-0.2,1.3-0.5,2.6-0.7,3.9c-6.7,37.3-10.3,75.3-10.6,113.2c0,1.6,0,3.1-0.1,4.7
	c-0.2,14,1.4,28.2,8.2,40.7c0.3,0.7,0.7,1.3,1,2c5,9.3,11,16,21.2,19.5c3.7,0.8,5.7,0.9,8.9-1.2c10.8-8.9,17.7-20.6,24.1-32.8
	c0.3-0.6,0.7-1.2,1-1.9c17.3-32.4,29-67.9,39-103.1c0.3-1,0.6-2.1,0.9-3.2c5.8-20.6,8.4-41.9,11.5-63.1c0.6-4.2,1.2-8.3,1.8-12.5
	c1.3-8.6,2.5-17.3,3.8-25.9c0.3-2.3,0.7-4.7,1-7c0.5-3.7,1.1-7.5,1.6-11.2c0.2-1.4,0.4-2.8,0.6-4.2c0.3-1.9,0.6-3.8,0.8-5.7
	c0.2-1.1,0.3-2.2,0.5-3.3c0.8-6.5,0.8-6.5-2-12.3c-1-1.1-2-2.2-3-3.3c-5.9-6.5-8.9-11.2-10.1-19.9c-2.1-14.1-5.3-28-16.9-37.3
	C687.6,440.7,676.9,445.8,669.1,455.1z"/>
<path class="st0" d="M816.6,99.8c4.9,0,9.7,0,14.6-0.1c3.8,0,7.6,0,11.4,0c1.8,0,3.6,0,5.4,0c22.8-0.2,22.8-0.2,31.9,7.3
	c2.9,4.7,2.6,9.7,2,15c-1.3,4.3-3.5,6.7-7.2,9.3c-9.4,4.6-19.8,4-30,4c-1.7,0-3.4,0-5.1,0c-3.7,0-7.3,0.1-11,0.1
	c-9.8,0.1-19.6,0.2-29.4,0.3c-1,0-2,0-3,0c-81.5,0.8-163,4.9-244.3,10.3c-11.3,0.8-22.6,1.4-34,1.9c-0.1,0.6-0.1,1.2-0.2,1.8
	c-0.6,6.2-1.5,12.3-2.6,18.4c-0.4,2-0.7,4.1-1.1,6.1c-0.2,1.1-0.4,2.1-0.6,3.3C501.1,249.7,491.8,322.4,482,395
	c-0.1,1.1-0.3,2.1-0.4,3.2C470.9,477.7,460.7,557.4,450,695c-0.1,0.9-0.1,1.7-0.2,2.6c-0.8,11.3-1.1,22.6-1.1,33.9
	c0,0.9,0,1.8,0,2.7c0,30.2,4.1,59.9,8.3,89.8c-7.3-1.1-14-2.8-20.8-5.4c-0.8-0.3-1.6-0.6-2.4-0.9c-12-4.5-18.2-12.1-23.6-23.5
	c-10.6-23.9-11.7-49.3-11.5-75.1c0-2.1,0-4.2,0-6.3c0.1-31.7,1.4-63.3,3.4-94.9c0-0.7,0.1-1.4,0.1-2.1c3.7-60.2,9.2-120.3,15-180.3
	c0.1-0.7,0.1-1.4,0.2-2.2c0.8-8.1,1.6-16.2,2.4-24.3c0.1-0.7,0.1-1.5,0.2-2.2c0.4-3.7,0.7-7.4,1.1-11.2c3.4-35.4,6.9-70.7,9.7-106.2
	c0.1-0.7,0.1-1.4,0.2-2.1c0.8-9.5,1.5-18.9,2.1-28.4c0.1-1.3,0.2-2.6,0.3-4c1.2-17.3,2-34.5,1.9-51.8c0-3.3,0-6.6,0-10
	c0-11.1-0.2-22.2-1.2-33.2c-37.5-0.4-74.6,0.4-112,3c-1.9,0.1-1.9,0.1-3.9,0.3c-134.3,4.8-134.3,4.8-273.9,53.6
	c-3.7,4.4-5.7,8.3-5.2,14.1c1.2,7,4.3,11.8,10,16c66.8,40.7,195.5,14.4,309.7-9.2c5.4-1.3,10.9-2.5,16.3-3.8c-2.1,5.5-5.2,9.4-9,14
	c-0.6,0.7-1.2,1.5-1.8,2.2c-11.6,13.9-25.8,21.4-43.1,25.6c-1.6,0.4-1.6,0.4-3.2,0.8c-11.4,2.8-22.8,5.1-34.3,7.3
	c-1.1,0.2-2.2,0.4-3.3,0.6c-34.8,6.6-69.9,12-105.2,14.4c-1,0.1-1,0.1-2,0.1c-13.3,0.9-26.5,1.1-39.8,1.1c-1.6,0-1.6,0-3.3,0
	c-37.4,0-81.8-1.4-110.6-28.7C4.6,255.2-0.2,234.8-0.4,213.2c0-1,0-2.1,0-3.1c0.1-16,5.4-30,16.5-41.5C34.6,152,58.3,147,82.2,144.2
	c2.1-0.3,4.2-0.5,6.3-0.8c4.5-0.5,9-1.1,13.5-1.6c7-0.8,14.1-1.7,21.1-2.5C241.4,125,241.4,125,296,121c1.4-0.1,2.8-0.2,4.2-0.3
	c94.4-7.1,189-11.1,366.3-17.4c0.8,0,1.6-0.1,2.5-0.1c22.7-0.7,45.4-1.5,68.1-2.2c1.1,0,2.1-0.1,3.2-0.1
	C765.7,100.1,791.1,99.8,816.6,99.8z"/>
<path class="st0" d="M377.7,844.5c34.3,23.1,71,45.1,110.3,58.5c0,0.7,0,1.3,0,2c-27.8,4.8-56.5-15.5-79-29.3
	c-11.5-7-23.1-13.9-34.7-20.6c-4-2.4-8.1-4.7-12.1-7.1c-34.8-20.5-69.2-35.9-110.4-26.1c-14.4,3.9-27.7,11.2-38.8,21.1
	c-0.7,0.5-1.3,1.1-2,1.6c-19.9,16.1-30.5,42.7-34,67.4c-0.1,0.9-0.3,1.8-0.4,2.8c-0.3,2.4-0.5,4.8-0.6,7.2c-0.1,0.9-0.1,1.8-0.2,2.7
	c-0.6,18,4.3,34.9,16.2,48.6c23.6,24.9,62.6,29.2,95,30.7c5.7,0.1,11.3,0.1,17,0.1c1.1,0,1.1,0,2.2,0c6.9,0,13.7-0.1,20.6-0.2
	c38.2-0.4,68.7,5.8,102.8,23.5c11.2,5.7,21.1,8.3,33.5,4.7c10.9-4.1,16.7-12,21.5-22.2c4.4-11.1,6.1-23.3,8.4-35
	c0.3-1.6,0.6-3.2,1-4.8c0.2-0.8,0.3-1.5,0.5-2.3c1-4.9,2.4-9.4,4.2-14.1c5.6-14.9,2.7-27.4-3.7-41.5c-0.3-1-0.7-2-1-3
	c6.7,1.2,10.3,5.7,14,11c9.2,18.9,3.1,44-3,63c23.8,5.7,45.5-5.3,65.3-17.4c4.2-2.7,8.4-5.4,12.6-8.2c11.4-7.5,21.9-13.9,35.1-17.4
	c0.8-0.2,1.6-0.5,2.4-0.7c37.6-10,70.8,12.6,102.1,30.1c33.8,18.8,69.9,23.2,107.4,13.8c19.9-5.7,37.5-15.2,55.6-25
	c8.4-4.6,16.9-9,25.6-13.1c0.6-0.3,1.3-0.6,1.9-0.9c18.2-8.8,44.6-21.1,65.1-21.1c0.1-0.9,0.1-1.8,0.2-2.7
	c3.7-36.2,21.1-76.9,48.5-101.7c13.8-6.5,26.6-4.6,40.4,0.2c1,0.3,2,0.7,3.1,1c14.6,5,25.6,9.9,32.8,24.2c4.8,12,3,32.5-2,44.4
	c-1.5,3-2.1,3.6-5.1,5.6c-3.1,0.3-6-0.1-9-1c-4.5-3.9-6.3-8-7-14c-0.3-6.7-0.2-13.3,0.4-20c0.1-1.3,0.1-1.3,0.2-2.6
	c0.1-1.6,0.3-3.3,0.4-4.9c0.4-5.4-0.3-8.2-4-12.5c-6-6-14.6-10-23.2-10.5c-8.7,1.1-14.3,5.9-19.8,12.5
	c-23.2,31.2-40.3,73.7-36.4,113c1.4,9.4,4.7,18.9,12.6,24.9c9.8,5.9,20.4,6.5,31.5,4.4c11.3-2.9,20.3-8,29.1-15.6
	c2.2-1.7,2.2-1.7,4.4-2.7c2.4-1.3,2.7-2.6,3.8-5c1.7-2.5,3.5-4.9,5.3-7.4c3.3-5.2,3.9-9.8,3.8-15.9c0-1.8,0-1.8,0-3.7c0-3,0-3-1.2-5
	c-26-0.3-51.4,0-77,5c-2,0.3-4,0.7-6,1c0.2-4.7,0.3-7.1,3.1-10.8c3.3-2.3,6.7-2.9,10.6-3.7c1-0.2,1-0.2,2-0.4
	c13.4-2.5,26.8-4.3,40.3-6.1c1-0.1,2.1-0.3,3.1-0.4c13.9-1.8,27.9-1.8,41.9-1.8c1.4,0,1.4,0,2.8,0c2.7,0,5.4,0,8.1,0
	c0.8,0,1.6,0,2.5,0c5.6,0,11.5,0.1,15.6,4.3c-0.4,2.6-0.4,2.6-1,5c-1.9,0.6-3.8,1.3-5.8,1.9c-1.1,0.3-2.1,0.7-3.2,1.1
	c-5.2,1.5-10.6,2.2-16,3.1c-0.1,0.7-0.3,1.3-0.4,2c-5.9,31.1-5.9,31.1-17.6,44c-0.9,1-0.9,1-1.8,2c-12.9,14.1-31.8,23-50.7,24.2
	c-16.9,0.4-33.2-3-46-14.8c-12.5-13.6-15.3-30.6-14.6-48.4c-36.1,8.8-68.4,23.1-100.5,41.8c-20.2,11.7-42.4,19-65.5,22.2
	c-0.9,0.1-1.8,0.3-2.8,0.4c-22.1,2.6-44.4,0.3-65.2-7.4c-1-0.4-1-0.4-2.1-0.8c-15-5.7-28.7-13.3-42.5-21.3
	c-24.8-14.3-49-25.4-78.2-18.2c-10.9,3.2-20,8.7-29.4,14.9c-45.1,29.6-45.1,29.6-71.8,29.6c-0.9,0-1.7,0-2.6,0
	c-5.2,0-9.5-0.5-14.4-2.2c-0.3,0.7-0.6,1.4-0.8,2.1c-0.9,2.1-1.7,4.2-2.6,6.3c-1.1,2.5-2.1,5-3.1,7.5c-6.1,14.8-14.2,31.1-29.2,38.5
	c-6.5,1.9-12.4,1.7-19,0.7c-0.8-0.1-1.6-0.3-2.5-0.4c-14-2.5-27.1-8.3-40.3-13.7c-14.4-5.9-29-11-44.5-12.9
	c-1.1-0.1-1.1-0.1-2.3-0.3c-9.2-1-18.4-0.9-27.7-0.8c-0.9,0-1.8,0-2.7,0c-9.2,0-18.4,0-27.5,0.6c-35.8,2.3-74.5,3.2-103.4-21.4
	c-3.3-2.9-6.4-6-9.5-9.1c-0.8-0.8-1.5-1.5-2.3-2.3c-17.1-17.9-21.3-41.6-20.9-65.5c0.8-27.6,12.3-56.2,30.2-77.2
	c0.4-0.5,0.8-1,1.3-1.5C244.6,786,323,807.5,377.7,844.5z"/>
<path class="st0" d="M1368.6,810.6c0.9,0,1.9,0,2.9,0c2.5,0.4,2.5,0.4,4.3,1.7c2.4,3.6,1.6,7.6,1.2,11.7c-0.6,2.1-1.1,4.3-1.8,6.4
	c-2.9,10.5-4.5,21.2-6.2,32c-0.2,1.1-0.3,2.1-0.5,3.3c-3,18.4-5.6,36.8-7.5,55.4c-0.2,1.5-0.2,1.5-0.3,3c-0.7,7.7-0.8,15.3-0.8,23
	c0,1.2,0,2.4,0,3.6c0,1.2,0,2.3,0,3.5c0,1,0,2.1,0,3.1c0.1,2.4,0.5,4.4,1.1,6.7c0.3-1.1,0.3-1.1,0.6-2.2c1.9-6.9,3.9-13.7,5.8-20.6
	c1-3.5,2-7.1,3-10.6c1-3.4,1.9-6.8,2.9-10.3c0.5-1.9,1.1-3.8,1.6-5.7c0.7-2.4,1.4-4.8,2-7.1c0.7-2.4,1.4-4.8,2-7.2
	c0.3-1.2,0.7-2.3,1-3.5c0.3-1,0.6-2.1,0.9-3.2c1.3-3,2.3-4.1,5.1-5.6c6.4-0.2,10.2,2,15.4,5.5c2.6,4.1,1.4,7.8,0.6,12.5
	c-0.3,1.9-0.6,3.8-0.8,5.7c-0.6,4.2-1.3,8.5-2,12.7c-5.5,27.6-5.5,27.6,0.8,53.6c3.1-0.3,4.6-0.5,6.7-2.9c3.4-6.1,6.2-12.1,8.5-18.7
	c0.3-1,0.7-1.9,1-2.9c5.2-15.1,7.7-29.5,8.8-45.5c5.8-2.7,8.7-3.5,15-2c1.7,1.3,1.7,1.3,3,3c-0.3,6.9-1.9,13.5-3.4,20.2
	c-2.7,12.3-4.7,24.1-4.9,36.8c0,0.9,0,1.8-0.1,2.7c0,5.2,0.5,8.7,3.4,13.3c1.9-0.1,1.9-0.1,4-1c10-14,14.8-34.1,18.6-50.6
	c1.5-6.3,3.3-12.2,5.9-18.2c0.3-0.6,0.5-1.3,0.8-1.9c2.8-6.1,6.3-12.6,12.7-15.3c3.8-0.6,5.6-0.2,9,1.6c3.9,3.2,7.7,6.8,10,11.4
	c0.1,1.6,0.2,3.3,0.2,4.9c0,1.3,0,1.3,0.1,2.7c-0.3,2.4-0.3,2.4-1.6,4.2c-2.9,2.1-6.3,1.6-9.7,1.2c-3.5-1-3.5-1-6-2
	c-6.3,10.8-8.5,22.6-9,35c0,1,0,1-0.1,2.1c-0.7,13.5-0.7,13.5,4.1,25.9c2.7,2.2,2.7,2.2,5.3,1.9c6.4-2.2,10-7.2,13.1-13.1
	c0.4-0.7,0.8-1.4,1.1-2.2c5.4-11,8.4-22.9,11.5-34.7c0.3-1.3,0.3-1.3,0.7-2.6c2.5-9.8,3.9-19.4,4.5-29.5c0.6-8,0.6-8,3.8-10.9
	c5-1.7,9.3-1.8,13.9,0.4c2.1,1.6,2.1,1.6,3.1,2.6c0.2,3.8,0.1,6.8-1,10.4c-4.1,14.5,3.9,32,8.3,45.7c0.3,1.1,0.7,2.1,1,3.2
	c0.3,1,0.6,1.9,0.9,2.9c2.7,9.2,3.9,21.8,0.2,30.9c-1.1,2-1.1,2-2.4,3.8c-0.4,0.7-0.9,1.3-1.3,2c-3.4,4.5-7,7.1-12.7,8
	c-9.2,0.2-15.3-2.8-22-9c-1.4-1.6-2.7-3.3-4-5c-0.4,0.5-0.8,0.9-1.1,1.4c-4.1,5-7.1,8-13.7,9.4c-7.1,0.6-12.7-1.4-18.2-5.8
	c-4.3-4.5-7-10.1-9-16c-0.4,0.8-0.8,1.6-1.2,2.4c-0.5,1.1-1,2.1-1.6,3.2c-0.5,1.1-1,2.1-1.5,3.2c-3,5.5-5.8,8.9-11.7,11.1
	c-5.3,0.6-8.9,0.3-13.4-2.7c-4.6-3.8-7.1-8.6-8.6-14.3c-0.7,1-1.3,2-2,3c-0.9,1.3-1.9,2.7-2.9,4c-0.5,0.7-1,1.4-1.5,2.1
	c-2.7,3.2-4.8,4.7-8.9,5.8c-5,0.3-8.6-0.1-12.5-3.4c-7.8-8.3-10.1-18.1-10.7-29.1c0-0.7-0.1-1.5-0.1-2.2c-0.1-2.3-0.3-4.6-0.4-6.9
	c-0.1-1.6-0.2-3.1-0.3-4.7c-0.2-3.8-0.4-7.7-0.7-11.5c-1.5,5.5-3,10.9-4.4,16.4c-0.5,1.9-1,3.7-1.5,5.6c-0.7,2.7-1.5,5.4-2.2,8.1
	c-0.2,0.9-0.5,1.8-0.7,2.7c-1.2,4.6-2.4,9.3-3.5,14c-0.2,0.9-0.4,1.8-0.7,2.8c-0.4,1.8-0.8,3.5-1.2,5.3c-1.4,6-1.4,6-4.7,8.2
	c-3.3,0.4-5.5,0.2-8.6-0.9c-6.5-5.7-7.4-14.9-8.4-23.1c-0.4-5.4-0.5-10.7-0.5-16.1c0-0.8,0-1.6,0-2.4c0-22.3,3.2-44.4,6.1-66.5
	c1-7.6,1.9-15.2,2.8-22.8c0.2-1.7,0.4-3.5,0.6-5.2c1.1-8.7,2-17.4,2.5-26.2c0-0.7,0.1-1.4,0.1-2.2c0.2-3.3,0.3-6.6,0.4-9.8
	c0.4-8.2,0.4-8.2,3.1-11.6C1363.3,810.9,1365.3,810.5,1368.6,810.6z M1521,934c-0.2,0.5-0.4,1.1-0.5,1.6c-0.8,2.6-1.7,5.2-2.5,7.7
	c-0.3,0.9-0.6,1.9-0.9,2.9c-2.4,7.2-5,14.2-8,21.1c-1.7,3.8-1.7,3.8-1.3,7.9c0.4,0.6,0.9,1.2,1.3,1.8c0.4,0.8,0.7,1.6,1.1,2.5
	c1.8,3.8,3.2,6.9,6.3,9.8c3.6,1.1,5.3,0.4,8.6-1.2c3.9-3.7,5.4-7.7,6-13c0.3-14.1-3.9-28-9-41C1521.7,934,1521.3,934,1521,934z"/>
<path class="st0" d="M1147,874c3.4,2.7,5.3,4.7,6,9c0,2.1,0,2.1-0.1,4.3c0,0.8-0.1,1.6-0.1,2.4c-0.1,0.8-0.1,1.7-0.2,2.5
	c-0.1,0.8-0.1,1.7-0.2,2.5c-0.1,2.1-0.3,4.1-0.4,6.2c4.3,2.8,8.5,5.3,13.2,7.4c5.2,2.5,8.2,5.4,10.8,10.6c0.5,9.5-0.4,18.8-1.5,28.2
	c-1,8.7-1.8,17.2-1.8,25.9c0,0.8,0,1.5,0,2.3c0,3.7,0.2,5.4,2.3,8.5c1.3,0,2.6,0,4,0c7.1-13.3,12-26.4,15.4-41.1
	c3.6-15.9,7.8-32.5,17.8-45.7c5.6-2.3,11.4-0.3,17,1.5c4.1,1.9,5.6,4.4,7.7,8.3c2.8,5.2,5.7,6.7,11.2,8.5c0.7,0.2,1.3,0.3,2,0.5
	c-1,4.7-2.1,9.5-3.2,14.2c-6.8,26.9-6.8,26.9-2.8,53.8c3.5-0.9,4.8-1.7,6.8-4.7c0.5-1.1,1.1-2.3,1.7-3.5c0.3-0.6,0.6-1.2,0.9-1.9
	c3.1-6.6,5.5-13.5,7.7-20.5c0.2-0.6,0.4-1.3,0.6-2c8.8-24.6,8.8-24.6,8.6-50.2c-0.4-2.3-0.4-2.3,1.2-4.6c2.4-1.7,2.4-1.7,5.4-2.2
	c4.2,0.8,5.5,2.2,8.1,5.6c0.6,2.8,0.5,5.5,0.3,8.3c0,1.1,0,1.1-0.1,2.2c-0.1,1.8-0.1,3.6-0.2,5.4c0.6-1,1.2-2,1.8-3.1
	c0.8-1.4,1.6-2.7,2.4-4.1c0.4-0.7,0.8-1.3,1.2-2c5.9-10,5.9-10,9.6-11.8c7.4-0.5,13.3,1,19.8,4.5c6.8,7.8,6.8,18.1,6.6,27.9
	c0,0.7,0,1.3,0,2c-0.3,22.1-2.7,47.6-18.4,64.7c-4.6,4.4-8.7,6.7-15.2,6.9c-5.8-0.3-8.7-1.9-12.8-6.1c-0.7-1-1.3-2-2-3
	c-0.5,2.6-1,5.2-1.4,7.8c-0.1,0.7-0.3,1.4-0.4,2.2c-4.2,23.4-6.5,51.5,1.1,74.3c0.7,2.7,0.7,2.7-0.3,4.7c-8.7,0.9-8.7,0.9-12.9-2.1
	c-5.7-8.6-5.6-21.2-5.4-31.1c0-1.8,0-1.8,0-3.7c0.2-15.4,1.8-30.7,3.4-46c0.1-1.1,0.2-2.2,0.3-3.3c0.5-5.2,1.1-10.4,1.7-15.7
	c-0.4,0.7-0.7,1.4-1.1,2.2c-6,11.7-6,11.7-11.9,14.8c-4.4,1.1-7.5,0.2-11.7-1.5c-4-2.6-6.1-6.4-8.3-10.5c-2,2.5-3.7,5.2-5.3,7.9
	c-3,4.8-6.2,8.2-11.7,10.1c-5.3,0.4-8.6-0.1-13-3c-4.6-4.8-7-8.4-7-15c-0.7,0-1.3,0-2,0c-0.3,1-0.3,1-0.6,2c-2.1,4.4-4.7,7.9-8.4,11
	c-3.9,1.2-7.2,0.3-11.1-1c-6-4.1-9.8-8.4-11.5-15.5c-0.8-5.1-0.6-10.2-0.6-15.3c0-2.5,0-5,0-7.5c0-3.9,0-7.8,0-11.7
	c0-3.8,0-7.6,0-11.4c0-1.2,0-2.3,0.1-3.5c0-5.9,0-5.9-2.4-11.1c-2.7-2.4-5-3.8-8.5-4.9c-0.1,1.7-0.1,1.7-0.2,3.4
	c-0.5,4.9-1.8,9.5-3.2,14.2c-0.2,0.7-0.4,1.4-0.6,2.2c-1.3,4.3-2.9,8.2-5,12.1c-6.9-0.9-6.9-0.9-8-2c-0.7-7.6,1.9-14.7,3.9-22
	c2.4-9.1,3.2-15.9,0.1-24.9c-2.2-7.3-2.8-13.1,0.4-20.1C1139.5,874.1,1142.1,873.3,1147,874z M1304,906c-3.4,3.4-5.1,7-6.8,11.4
	c-0.2,0.6-0.5,1.2-0.7,1.9c-0.8,2-1.6,3.9-2.3,5.9c-0.5,1.4-1.1,2.7-1.6,4.1c-2.9,7.3-5.7,14.6-8.2,22c-0.2,0.7-0.5,1.3-0.7,2
	c-1.5,4.6-2.9,9.7-2.6,14.7c2.4,2.8,2.4,2.8,5,5c-0.1,2.1-0.1,2.1-1,4c-0.9,1.8-0.9,1.8-1,4c1.8,3.9,2.9,6.2,6.4,8.6
	c2.6,0.6,2.6,0.6,5.1-0.6c11.4-9.2,15.3-25,17.2-38.9c2.8-22.2,2.8-22.2-3-42.8C1307.8,905.6,1307.8,905.6,1304,906z M1222,910
	c-3,3.5-4.8,6.5-6.3,10.8c-0.4,1.1-0.8,2.2-1.1,3.4c-0.4,1.2-0.8,2.4-1.2,3.6c-0.4,1.2-0.8,2.4-1.2,3.7c-4.1,12.9-6.2,25.1-7.1,38.6
	c-0.1,0.9-0.1,1.7-0.2,2.6c-0.3,5.8,0.4,10,3.1,15.3c2,1.6,2,1.6,4,2c12.6-16.5,20.7-45.1,19-66c-0.7-0.7-1.3-1.3-2-2
	c-0.8-2.5-1.4-5.1-2-7.7c-0.8-2.5-0.8-2.5-3.1-3.6C1223.3,910.5,1222.6,910.2,1222,910z"/>
<path class="st0" d="M1309.2,158.8c9.4,7.7,13.4,16.2,14.8,28.2c0.8,13.8,0.2,28.9-9,40c-6.4,6.2-13.2,8.3-22.1,8.4
	c-14-0.2-24.4-5.2-34.6-14.6c-9.1-9.5-14.8-21-14.5-34.2c0.8-10.1,7.8-17.7,15.2-24.1C1274.8,150.2,1291.4,149.2,1309.2,158.8z"/>
<path class="st0" d="M969.8,158.9c9,7.5,13.4,16.8,14.4,28.4c0.1,2.3,0.1,4.6,0.1,7c0,1.2,0,1.2,0,2.5c-0.2,11.3-2.2,22.3-9.9,31
	c-7.4,7-15.7,7.8-25.6,7.6c-10.5-0.9-18.8-4.6-26.8-11.3c-0.6-0.5-1.2-1-1.9-1.6c-9.6-8.7-15.8-21.1-16.5-34.1
	c0.4-8.9,5.4-15.2,11.4-21.4c0.9-0.9,0.9-0.9,1.7-1.9C930.5,150.5,952.7,147.2,969.8,158.9z"/>
<path class="st0" d="M1681-0.3c1.2,0,2.3-0.1,3.5-0.1c15.9-0.1,29.7,6.1,41.2,17c11.9,12.5,16.6,26.7,16.7,43.6c0,1.2,0,2.3,0.1,3.5
	c0.1,16.4-6.8,30.9-18.3,42.5c-12.3,11.6-29.3,16.3-45.9,16c-14.6-0.5-29.7-6.9-40.2-17.2c-14.2-16.1-18-32.5-17.2-53.3
	c0.9-13.2,8.3-27.9,18.2-36.7C1652.1,4.6,1664.3-0.2,1681-0.3z M1643.9,26.6c-9.7,11.9-13.3,25.2-12.2,40.3c1.4,12.8,8.2,25,18.2,33
	c11.8,8.4,25.4,12.8,39.9,10.5c14.6-3.2,26.2-10.3,34.5-22.7c6.9-12.1,9.5-25.1,6.5-38.8c-4-14.2-11.3-25-24-32.6
	C1685.6,5.4,1660.5,8.6,1643.9,26.6z"/>
<path class="st0" d="M413,881c-0.6,5.6-2.6,9.9-5.1,14.9c-0.4,0.8-0.8,1.6-1.1,2.4c-0.9,1.9-1.9,3.8-2.8,5.8c4.9,2.5,9.9,4.8,15,6.9
	c24.6,10.2,51.7,23.1,70,43.1c0,0.7,0,1.3,0,2c-4-1.3-7.8-2.8-11.5-4.7c-1.1-0.5-2.1-1-3.2-1.6c-1.7-0.8-1.7-0.8-3.4-1.7
	c-35-17.3-35-17.3-72.8-26.1c-1,3.9-2,7.9-2.9,11.8c-0.3,1.1-0.6,2.2-0.8,3.3c-1.7,7-2.8,13.7-3.2,20.9c1.2,0.4,2.3,0.8,3.5,1.1
	c27.1,9,52.6,21.4,74.5,39.9c1.2,1,1.2,1,2.4,2c1.5,1.3,3.1,2.6,4.6,4c-3.9,1.3-4.8,0.4-8.4-1.4c-1.1-0.5-2.2-1.1-3.4-1.6
	c-0.6-0.3-1.2-0.6-1.8-0.9c-24-11.7-48.8-20.8-74.4-28.1c-0.3,8.9-0.7,17.8-1,27c-3.6-0.7-7.3-1.3-11-2c-2-0.3-4-0.7-6-1
	c-0.9-38.6,7.2-83.4,34.8-112.4C408.4,881,408.4,881,413,881z"/>
<path class="st0" d="M191,914c2,0.2,2,0.2,4,1c1,2,1.9,4,2.7,6c7.7,18.4,17,33.2,36.2,41.2c17,6.5,34.8,8,52.9,8.6
	c61.7,2.3,61.7,2.3,76.2,16.2c0,1.3,0,2.6,0,4c-1.5-0.1-2.9-0.2-4.4-0.4c-0.8-0.1-1.6-0.1-2.5-0.2c-2.6-0.3-5.1-0.8-7.7-1.4
	c-5.5-1.1-10.9-1.5-16.5-1.6c-1,0-2.1-0.1-3.1-0.1c-10.8-0.4-21.6-0.3-32.3-0.2c-69.1,0.6-69.1,0.6-90.4-19.7
	c-11.5-12.7-17.5-27.3-18.1-44.3C188.7,916.3,188.7,916.3,191,914z"/>
<path class="st0" d="M1655,28c39.9,0,39.9,0,47,6c3.8,4.9,4.8,9,4.5,15.2c-1.1,5.9-4.1,10.1-8.9,13.4c-2.2,1.2-4.3,2.3-6.6,3.3
	c0.7,0.6,1.3,1.2,2,1.8c5.6,5.6,18,19.1,18,27.2c-4.9,0.8-9.2,1.1-14,0c-3.7-3.8-5.7-8.3-8-13c-1.1-1.7-2.3-3.4-3.4-5.1
	c-1.7-2.4-2.6-4.1-3.6-6.9c-5.8-2.6-5.8-2.6-16-3c0,9.2,0,18.5,0,28c-3.6,0-7.3,0-11,0C1655,72.9,1655,50.8,1655,28z M1666,38
	c0,6.3,0,12.5,0,19c4,0.1,4,0.1,8.1,0.1c1.2,0,1.2,0,2.5,0.1c5.9,0,11.3-0.2,15.9-4.4c1.9-3.3,2.3-5,1.6-8.8c-2.6-3.1-4.2-4.7-8-6
	c-1.6-0.1-3.1-0.1-4.7-0.1c-0.9,0-1.8,0-2.7,0c-0.9,0-1.9,0-2.8,0c-1.4,0-1.4,0-2.8,0C1670.6,38,1668.3,38,1666,38z"/>
<path class="st0" d="M350.4,854.1c1.9,1.6,3.7,3.3,5.6,4.9c-3.6,1.2-4.5,0.7-8-0.7c-1-0.4-2-0.8-3.1-1.2c-1.6-0.6-1.6-0.6-3.3-1.3
	c-11.4-4.2-22.7-7.5-34.6-9.9c-1.1-0.2-2.2-0.5-3.3-0.7c-29.9-5.8-60,2.6-87.7,13.7c5.9-13.4,21.1-20.9,34-26.2
	c4.6-1.7,9.2-2.9,14-3.8c0.7-0.1,1.4-0.3,2.1-0.4C295.4,824.1,328.1,835.3,350.4,854.1z"/>
<path class="st0" d="M1445,836c2.9,1.8,4.5,2.9,6,6c0.5,5.3,0.8,10.3-1.5,15.2c-3.4,2.5-6.3,3.1-10.5,2.8c-5.4-1.9-8.5-4.9-11-10
	c-0.6-5.3,0.7-7.9,4-12C1436.2,835.2,1440,835.3,1445,836z"/>
</svg>
