<?xml version="1.0" encoding="UTF-8"?>
<svg version="1.1" xmlns="http://www.w3.org/2000/svg" width="1742" height="1081">
<path d="M0 0 C20.93138711 14.54057144 31.20138712 36.00210653 35.65942383 60.57739258 C38.01933009 74.84238091 38.46478037 88.74389017 38.4140625 103.1875 C38.41190735 104.29114899 38.4097522 105.39479797 38.40753174 106.53189087 C38.34901097 125.27257496 37.58558209 143.65804395 35.1015625 162.25 C35.00210327 162.99773682 34.90264404 163.74547363 34.8001709 164.51586914 C24.38291391 242.03310708 2.7309784 319.29295856 -27.8984375 391.25 C-28.35524902 392.32749512 -28.81206055 393.40499023 -29.28271484 394.51513672 C-36.01992058 410.31807551 -43.35130503 425.82024916 -50.8984375 441.25 C-51.32479492 442.12994629 -51.75115234 443.00989258 -52.19042969 443.91650391 C-58.34829394 456.62045622 -65.08327322 468.93324459 -72.12597656 481.16699219 C-73.97304803 484.37977711 -75.80739166 487.59961396 -77.640625 490.8203125 C-88.12021908 509.18108772 -99.047613 526.98009618 -111.38061523 544.16088867 C-119.52077411 555.05677297 -119.52077411 555.05677297 -122.3359375 567.9375 C-122.28695312 569.03964844 -122.23796875 570.14179687 -122.1875 571.27734375 C-122.09210937 572.58832031 -121.99671875 573.89929688 -121.8984375 575.25 C-121.85299805 576.05066895 -121.80755859 576.85133789 -121.76074219 577.67626953 C-120.18623483 605.13872524 -114.56839899 631.72421109 -101.8984375 656.25 C-101.55941406 656.90742187 -101.22039063 657.56484375 -100.87109375 658.2421875 C-95.75735393 668.0201076 -89.91680625 676.75141191 -82.8984375 685.25 C-82.43034668 685.83023926 -81.96225586 686.41047852 -81.47998047 687.00830078 C-70.50926875 700.59056274 -56.16772166 715.74999269 -37.8984375 718.25 C-30.43611905 718.98159985 -24.31980447 716.77929276 -18.3515625 712.3671875 C39.65785278 662.10437116 66.63067999 550.10696829 85.49603271 479.51220703 C87.37443842 472.49464537 89.28261516 465.4851212 91.19238281 458.4760437 C91.89028156 455.90026966 92.57684654 453.32169489 93.26171875 450.74243164 C100.62557174 423.30666212 100.62557174 423.30666212 109.1015625 416.25 C112.16675167 415.56119345 115.0217899 415.66106103 118.1015625 416.25 C121.38331568 418.77968474 122.79400027 420.32731331 124.1015625 424.25 C128.3877763 464.49529166 110.40900922 508.63852763 97.52587891 546.09912109 C96.21521793 549.9107226 94.92764277 553.72980855 93.64453125 557.55078125 C36.08590828 728.02202381 36.08590828 728.02202381 -16.3359375 754.25 C-29.63595916 760.66967526 -46.35021733 760.00941581 -60.30859375 755.64453125 C-75.51731908 749.73646276 -88.03175759 741.44868799 -99.8984375 730.25 C-100.55328125 729.65960937 -101.208125 729.06921875 -101.8828125 728.4609375 C-129.88487418 702.1945408 -146.19232605 661.22291807 -153.27734375 624.23046875 C-153.58772485 621.37805183 -153.58772485 621.37805183 -154.8984375 620.25 C-155.39134277 621.29639648 -155.88424805 622.34279297 -156.39208984 623.42089844 C-161.52421803 634.31022776 -166.67754945 645.18933584 -171.85449219 656.05743408 C-172.75074511 657.93980626 -173.64509211 659.8230857 -174.5390625 661.70654297 C-189.73444738 693.58737742 -211.75024029 727.6440465 -245.98046875 741.06640625 C-257.96226896 744.67355873 -271.94873711 742.21345518 -283.0859375 737.0625 C-304.06565209 725.67156907 -315.51609756 704.83877894 -322.3046875 682.76171875 C-327.79634456 664.18422745 -329.07639484 645.71016155 -328.9609375 626.4375 C-328.95590574 624.95507966 -328.95134584 623.47265764 -328.94726562 621.99023438 C-328.9364082 618.4101205 -328.91923885 614.83007157 -328.8984375 611.25 C-329.15834473 611.91604248 -329.41825195 612.58208496 -329.68603516 613.26831055 C-336.92912907 631.71198423 -345.0426226 649.53265861 -353.8984375 667.25 C-354.28596191 668.03826172 -354.67348633 668.82652344 -355.07275391 669.63867188 C-367.57267734 695.01638089 -385.03792131 721.79583321 -412.2109375 732.5625 C-423.51441367 734.66992776 -433.86517904 733.42658646 -443.8125 727.51953125 C-473.90840491 706.7508696 -485.44978765 664.228871 -491.8984375 630.25 C-494.50148647 614.99410362 -496.22861176 599.62974566 -497.8984375 584.25 C-498.09507492 584.82373856 -498.29171234 585.39747711 -498.49430847 585.98860168 C-536.49530525 696.81330452 -536.49530525 696.81330452 -554.8984375 719.25 C-555.99671875 720.59578125 -555.99671875 720.59578125 -557.1171875 721.96875 C-565.88278826 732.21586075 -577.28094476 740.2063334 -590.8984375 742.25 C-608.06885737 743.3773508 -622.77383384 739.35718698 -636.0859375 728.1875 C-659.86639486 705.29207585 -667.7724303 671.12072822 -668.8984375 639.25 C-668.93173705 636.43078185 -668.92848694 633.6123281 -668.91796875 630.79296875 C-668.91655884 630.06283569 -668.91514893 629.33270264 -668.91369629 628.58044434 C-668.91005974 626.803626 -668.90445696 625.02681186 -668.8984375 623.25 C-669.21482178 624.05405273 -669.53120605 624.85810547 -669.85717773 625.68652344 C-675.86537468 640.92163307 -681.90139918 656.10814711 -688.83056641 670.95410156 C-689.92363415 673.30417222 -690.99574574 675.663085 -692.06640625 678.0234375 C-717.24580141 732.99639953 -717.24580141 732.99639953 -741.36328125 742.59375 C-753.14991324 745.64483501 -766.9741012 742.53531876 -777.5 736.8125 C-800.57128705 721.78234557 -812.9592243 692.27081284 -821.8984375 667.25 C-823.77903395 670.07089467 -824.64792525 672.19536688 -825.67578125 675.38671875 C-835.54019858 705.32539921 -849.40291375 744.49212584 -879.26879883 760.33496094 C-887.5481529 764.50411572 -894.96998316 766.63581561 -904.2109375 766.5625 C-904.952229 766.55758545 -905.69352051 766.5526709 -906.45727539 766.54760742 C-923.01762336 766.19656189 -934.68677806 758.6682761 -945.98828125 747.11328125 C-966.77888157 723.52315455 -970.5896601 686.26410614 -972.8984375 656.25 C-972.95628418 655.55213379 -973.01413086 654.85426758 -973.07373047 654.13525391 C-978.99993759 580.18955382 -960.07705475 509.48458198 -935.8984375 440.25 C-935.64858093 439.53179077 -935.39872437 438.81358154 -935.14129639 438.0736084 C-908.00736053 360.13473257 -908.00736053 360.13473257 -887.8984375 346.25 C-870.38620605 340.41258952 -846.25164584 349.51273811 -830.5234375 357.0625 C-829.57863525 357.50468872 -829.57863525 357.50468872 -828.61474609 357.95581055 C-817.83021314 363.38478792 -812.15714968 371.27767065 -806.8359375 381.875 C-805.62418536 384.19166128 -804.41194953 386.50806962 -803.19921875 388.82421875 C-801.66419398 391.80274802 -800.13497145 394.78388102 -798.61865234 397.77197266 C-797.60688635 399.75517583 -796.56917666 401.72208637 -795.5234375 403.6875 C-795.00007812 404.71746094 -794.47671875 405.74742187 -793.9375 406.80859375 C-789.92988449 411.60698396 -782.09334993 412.88374516 -776.1875 414.6953125 C-775.49328949 414.91065643 -774.79907898 415.12600037 -774.08383179 415.34786987 C-771.8977169 416.0258116 -769.71067858 416.70070137 -767.5234375 417.375 C-765.31484859 418.05667512 -763.10648922 418.73905637 -760.89877319 419.42355347 C-759.53262098 419.84707005 -758.16595926 420.26894739 -756.79873657 420.68899536 C-752.1232477 422.1375949 -752.1232477 422.1375949 -749.8984375 423.25 C-750.50252209 429.91380816 -752.69644298 435.83660737 -754.8984375 442.125 C-776.82034352 506.5732005 -803.31871723 597.85660591 -786.8984375 665.25 C-786.69444336 666.09643066 -786.49044922 666.94286133 -786.28027344 667.81494141 C-782.44553793 683.27389334 -777.79471575 700.66998035 -764.0234375 710.25 C-759.12415417 711.81777067 -754.64450327 712.39419407 -749.7890625 710.37109375 C-747.6792753 709.13220708 -745.80508772 707.78241102 -743.8984375 706.25 C-743.33640625 705.80011719 -742.774375 705.35023438 -742.1953125 704.88671875 C-697.94406129 664.87448927 -681.83031829 574.31867288 -665.6484375 519.125 C-665.46034012 518.48416222 -665.27224274 517.84332443 -665.07844543 517.18306732 C-663.81936741 512.89211375 -662.56777536 508.59903098 -661.3203125 504.3046875 C-661.00324341 503.21897461 -660.68617432 502.13326172 -660.35949707 501.01464844 C-657.27412993 490.33171715 -655.44884955 480.23124699 -654.4609375 469.13671875 C-654.33449175 467.75930429 -654.20761023 466.38192978 -654.08032227 465.0045929 C-653.81460215 462.11608764 -653.55274902 459.22726778 -653.29394531 456.33813477 C-652.97033202 452.72661837 -652.63947385 449.11581861 -652.30566406 445.50523186 C-652.04425807 442.67091798 -651.786573 439.83627104 -651.5291748 437.00159073 C-651.40047643 435.59306052 -651.27035215 434.18465986 -651.13879395 432.77639389 C-650.43249564 425.21102652 -649.83578889 417.67031799 -649.546875 410.07666016 C-649.48830322 408.79064407 -649.42973145 407.50462799 -649.36938477 406.17964172 C-649.2665935 403.76463106 -649.1948886 401.34802024 -649.15991211 398.93107605 C-648.80730021 391.19296575 -648.80730021 391.19296575 -646.14738464 388.4332428 C-644.09945993 387.11870616 -642.16169933 386.1350592 -639.8984375 385.25 C-638.82207031 384.82332031 -637.74570312 384.39664062 -636.63671875 383.95703125 C-631.4307337 382.97240921 -626.37304538 382.92113124 -621.0859375 382.9375 C-620.05662109 382.92138672 -619.02730469 382.90527344 -617.96679688 382.88867188 C-608.59467994 382.88274391 -600.61791356 384.3255238 -593.17578125 390.26171875 C-590.62818223 394.2272475 -590.61030913 398.52884797 -591.36647034 403.04582214 C-592.15772831 406.38071353 -593.03720525 409.68044889 -593.94921875 412.984375 C-594.45468085 414.89451364 -594.96010715 416.80466216 -595.46406746 418.71519756 C-596.00164957 420.7460039 -596.54529586 422.77511067 -597.09011841 424.8039856 C-598.99994345 431.93267504 -600.83932176 439.07958879 -602.6640625 446.23046875 C-602.94060512 447.31386189 -602.94060512 447.31386189 -603.22273445 448.41914177 C-618.24064084 507.46328955 -629.10037181 570.79165795 -629.1484375 631.875 C-629.14911224 632.65692719 -629.14978699 633.43885437 -629.15048218 634.24447632 C-629.1216056 655.44069704 -628.82830193 682.30705452 -613.39453125 698.86328125 C-607.02537896 704.50072936 -600.30375562 706.58621272 -591.8984375 706.25 C-583.65442786 704.41140792 -578.05122406 696.98388199 -573.58886719 690.28369141 C-560.87582865 670.20588974 -552.45951897 648.14347138 -544.6484375 625.8125 C-543.79578564 623.39696924 -542.94241423 620.98169236 -542.08837891 618.56665039 C-540.0527622 612.80188698 -538.02707367 607.03372243 -536.00639915 601.26370716 C-534.34157823 596.51096719 -532.67087487 591.76032529 -530.99707031 587.01074219 C-528.31714319 579.40563878 -525.6442963 571.79807079 -522.97572327 564.18897629 C-522.28885971 562.23145247 -521.60101282 560.27427663 -520.91296387 558.31716919 C-512.42596773 534.16194994 -504.17858636 509.86897912 -497.03637695 485.27612305 C-496.64836992 483.95209227 -496.25201422 482.63048321 -495.84790039 481.3112793 C-492.1214307 469.13305297 -490.51063962 457.01483299 -489.13302994 444.37781143 C-488.68002627 440.26895609 -488.20693244 436.16237408 -487.73706055 432.05541992 C-486.81069293 423.94353843 -485.89114635 415.83090903 -484.97583008 407.71777344 C-480.38176487 367.02361433 -475.64927854 326.34995369 -470.60883713 285.70847702 C-470.21129825 282.50290892 -469.81449962 279.29724976 -469.41775513 276.09158325 C-468.79666728 271.07713891 -468.17295369 266.06302847 -467.54676056 261.04921913 C-467.31775549 259.21503068 -467.08923318 257.38078187 -466.86122894 255.54646873 C-466.55042996 253.04928983 -466.23716761 250.55243316 -465.9230957 248.05566406 C-465.83330728 247.33133714 -465.74351885 246.60701021 -465.65100956 245.86073399 C-465.19876414 242.28927837 -464.66086049 238.76892458 -463.8984375 235.25 C-474.84066109 234.52667439 -485.7850235 234.0961128 -496.74609375 233.77734375 C-497.8041925 233.74635338 -497.8041925 233.74635338 -498.88366699 233.71473694 C-501.88806243 233.62684772 -504.89246786 233.53934832 -507.89691353 233.45319176 C-511.76645272 233.34211603 -515.63585815 233.22810311 -519.50509644 233.10696411 C-528.08776283 232.83852186 -536.67010326 232.5976137 -545.25504971 232.41414738 C-549.24060224 232.32799751 -553.22469905 232.22728351 -557.20898438 232.09423828 C-576.53249421 231.45922043 -593.24197206 231.7687454 -611.6151123 238.72094727 C-614.37640203 239.3607457 -616.19284342 239.03136728 -618.8984375 238.25 C-620.62573242 236.98266602 -620.62573242 236.98266602 -622.19140625 235.44140625 C-625.87827658 232.10139477 -629.68069657 230.16877592 -634.2109375 228.1875 C-635.70995353 227.50590752 -637.20865288 226.82361814 -638.70703125 226.140625 C-639.42487793 225.81771484 -640.14272461 225.49480469 -640.88232422 225.16210938 C-643.53379848 223.96255648 -646.15907661 222.71580312 -648.7734375 221.4375 C-649.51335937 221.08042969 -650.25328125 220.72335937 -651.015625 220.35546875 C-654.53245482 218.29060809 -655.7251315 216.83490775 -656.8984375 212.875 C-656.8984375 209.25 -656.8984375 209.25 -654.6484375 206.375 C-650.13384305 202.88644974 -645.99407188 203.04191334 -640.51171875 202.90869141 C-639.64814695 202.88404407 -638.78457516 202.85939672 -637.89483452 202.83400249 C-635.00030186 202.75235002 -632.10563639 202.6770725 -629.2109375 202.6015625 C-627.15291029 202.54435543 -625.09489656 202.48666155 -623.03689575 202.42851257 C-618.62689053 202.30452938 -614.21682775 202.18299129 -609.80670166 202.06338501 C-598.20933615 201.74829768 -586.61246205 201.41592662 -575.015625 201.08203125 C-573.84154964 201.04833372 -572.66747429 201.01463619 -571.45782089 200.97991753 C-547.30890974 200.28464073 -523.16580632 199.45443046 -499.0234375 198.5625 C-498.11805237 198.52912788 -497.21266724 198.49575577 -496.27984619 198.46137238 C-485.48582141 198.0634169 -474.69199772 197.66036672 -463.8984375 197.25 C-463.24040652 188.49575479 -462.58806497 179.74110852 -461.94268036 170.98592186 C-461.64272451 166.91911722 -461.3409222 162.85246839 -461.03466797 158.78613281 C-460.73834451 154.85069606 -460.44717432 150.91490684 -460.15934753 146.97883987 C-460.0495119 145.48867205 -459.93792185 143.99863231 -459.82441711 142.50873947 C-457.91173859 123.78583734 -457.91173859 123.78583734 -461.4609375 105.625 C-464.42953482 97.61056232 -464.42953482 97.61056232 -462.8984375 94.25 C-460.25217484 91.03668106 -457.92207366 89.32296964 -453.8984375 88.25 C-441.72257285 87.09039384 -430.85905167 92.04159069 -420.0859375 97.125 C-419.21485352 97.53540527 -418.34376953 97.94581055 -417.44628906 98.36865234 C-414.88633936 99.61357273 -412.37988132 100.85278564 -409.8984375 102.25 C-409.14591202 102.6072113 -408.39338654 102.96442261 -407.61805725 103.3324585 C-404.0037506 105.28978659 -401.3979949 106.73461596 -400.07148743 110.7585144 C-399.76378665 113.93891586 -399.78755746 116.96393741 -399.93359375 120.15625 C-399.96236099 121.33682983 -399.99112823 122.51740967 -400.02076721 123.73376465 C-400.61708781 137.70571558 -403.66700677 151.18763522 -406.86645508 164.74279785 C-407.66316288 168.14900337 -408.42409553 171.56320421 -409.18945312 174.9765625 C-413.4658267 193.9521676 -413.4658267 193.9521676 -414.8984375 198.25 C-413.88032958 198.26213028 -413.88032958 198.26213028 -412.84165382 198.27450562 C-365.32129084 198.84718632 -317.81852304 199.84303015 -270.31027913 201.04701328 C-261.28944697 201.27542477 -252.26849109 201.49877185 -243.24753261 201.72212791 C-235.34728884 201.91793191 -227.44708051 202.11515942 -219.546875 202.3125 C-218.33041959 202.34285402 -218.33041959 202.34285402 -217.08938932 202.37382126 C-200.09159769 202.7981923 -183.0941174 203.23362129 -166.09767842 203.70945549 C-164.5985374 203.75133106 -163.09938568 203.79282581 -161.60022235 203.83389473 C-151.02113747 204.12466912 -140.45788699 204.53384686 -129.8984375 205.25 C-129.8984375 208.22 -129.8984375 211.19 -129.8984375 214.25 C-135.78143698 217.43294076 -141.33699264 219.46198352 -147.8359375 221 C-148.86589844 221.24532471 -149.89585937 221.49064941 -150.95703125 221.7434082 C-189.21453326 230.39778035 -229.19866512 236.4553062 -268.46044922 236.36352539 C-270.17677814 236.36324262 -271.89310718 236.36340301 -273.60943604 236.3639679 C-278.22417313 236.36425236 -282.83888372 236.35841287 -287.45361471 236.35139394 C-292.29289709 236.34510148 -297.13218022 236.34455197 -301.97146606 236.34336853 C-311.11540838 236.34027247 -320.2593386 236.33208255 -329.40327561 236.32201904 C-339.82178008 236.31080405 -350.24028515 236.30533393 -360.65879416 236.30032361 C-382.07201533 236.28989833 -403.48522565 236.27233261 -424.8984375 236.25 C-430.05484922 280.26683893 -435.06082064 324.29772767 -439.87267315 368.35355449 C-440.43021356 373.45600198 -440.99044017 378.55814989 -441.55200195 383.66015625 C-443.27273084 399.29812366 -444.97708685 414.9376048 -446.64334488 430.58147907 C-447.42935605 437.94968876 -448.24141826 445.31436668 -449.08020496 452.67675686 C-452.46462723 482.5524352 -453.58359219 511.99828812 -453.30004883 542.05615234 C-453.26409921 546.45519795 -453.25149153 550.85418186 -453.23949432 555.25334835 C-453.43318047 594.72612187 -453.43318047 594.72612187 -450.6484375 634.0625 C-450.52130371 635.16795166 -450.39416992 636.27340332 -450.26318359 637.41235352 C-448.0552939 655.26952886 -445.01466645 678.54287433 -430.17578125 690.65625 C-425.34619428 693.73662438 -420.2517747 694.86183696 -414.671875 693.84375 C-398.25925959 689.10608782 -388.36984066 672.80575539 -380.49511719 658.74414062 C-354.66872582 611.65998685 -338.86231536 559.16355077 -324.1484375 507.75 C-323.85180206 506.71615173 -323.55516663 505.68230347 -323.24954224 504.61712646 C-321.40812805 498.17639626 -319.62155134 491.72337233 -317.8984375 485.25 C-317.58076416 484.07276367 -317.26309082 482.89552734 -316.93579102 481.68261719 C-313.98905739 469.52839507 -313.39831139 456.92533748 -312.3359375 444.5 C-312.12641319 442.13404697 -311.91613108 439.76816091 -311.70507812 437.40234375 C-311.60224518 436.23352661 -311.49941223 435.06470947 -311.39346313 433.86047363 C-311.18642029 431.512135 -310.97629324 429.16406618 -310.76303101 426.81628418 C-310.23378256 420.83204579 -309.81717031 414.86872242 -309.58251953 408.86523438 C-309.52491959 407.6779071 -309.46731964 406.49057983 -309.40797424 405.26727295 C-309.30276272 403.01174566 -309.22792823 400.7545242 -309.18858337 398.49688721 C-308.81337087 391.17778331 -308.81337087 391.17778331 -306.14491272 388.47184753 C-298.23918483 383.40647579 -290.23779306 382.90916608 -281.0859375 382.9375 C-280.05662109 382.92138672 -279.02730469 382.90527344 -277.96679688 382.88867188 C-269.99916819 382.88363226 -261.91871386 383.61865611 -255.3984375 388.625 C-252.87387746 391.27578804 -251.94136435 392.80109942 -250.8984375 396.25 C-251.02952576 398.70343018 -251.02952576 398.70343018 -251.57592773 401.27832031 C-251.77797821 402.24338501 -251.98002869 403.20844971 -252.1882019 404.20275879 C-253.40452976 409.42137129 -254.7033561 414.61264683 -256.05859375 419.796875 C-256.6904036 422.25162731 -257.32122214 424.70663492 -257.95117188 427.16186523 C-258.44363403 429.07840408 -258.44363403 429.07840408 -258.94604492 431.03366089 C-266.00816691 458.58879876 -272.13157706 486.1959837 -276.8984375 514.25 C-277.06023499 515.19750122 -277.22203247 516.14500244 -277.38873291 517.12121582 C-281.91498058 543.72462765 -285.53745959 570.36537016 -287.8984375 597.25 C-288.053125 598.96425171 -288.053125 598.96425171 -288.2109375 600.71313477 C-289.04308667 610.90621911 -289.14157518 621.09136462 -289.1484375 631.3125 C-289.14911224 632.21941589 -289.14978699 633.12633179 -289.15048218 634.06072998 C-289.12430869 656.22307124 -288.97708195 681.54156173 -273.3125 699.01953125 C-268.41731484 703.74235074 -262.57100489 705.96339271 -255.796875 706.37890625 C-242.37126864 705.49634647 -231.75070961 692.70326235 -223.46875 683.3828125 C-220.55824223 679.91664197 -217.92015603 676.27614807 -215.3359375 672.5625 C-214.92545166 671.97654053 -214.51496582 671.39058105 -214.09204102 670.78686523 C-204.70337172 656.9194314 -197.45226415 641.65237118 -190.0234375 626.6875 C-189.04432911 624.7224239 -188.06508011 622.75741785 -187.08569336 620.79248047 C-177.88519779 602.37961868 -177.88519779 602.37961868 -169.14990234 583.74365234 C-167.8984375 581.25 -167.8984375 581.25 -166.08837891 578.52587891 C-159.26666279 567.43389634 -160.00108267 556.00889893 -160.11587524 543.30126953 C-160.16613519 537.24106011 -160.11402004 531.1821303 -160.06615639 525.12203217 C-160.05077334 523.06925759 -160.03901035 521.01648435 -160.02763367 518.96368408 C-159.41748669 423.54022785 -142.940478 327.04711 -122.8984375 219.25 C-122.69734375 218.18736938 -122.49625 217.12473877 -122.2890625 216.02990723 C-113.57602627 170.13319546 -103.55226288 124.39135773 -89.22265625 79.88989258 C-86.13712733 70.28645551 -83.9524507 61.06106962 -82.55566406 51.07739258 C-79.86770215 32.03673099 -76.5006933 8.45479272 -60.22265625 -4.23046875 C-43.32924576 -15.27506822 -16.46320644 -9.94004917 0 0 Z M-19.8984375 33.25 C-52.96282196 131.13981772 -82.9306128 230.04440844 -123.8984375 499.25 C-121.03462034 496.55684076 -118.92365431 493.94620594 -116.9375 490.55859375 C-116.39085693 489.62829346 -115.84421387 488.69799316 -115.28100586 487.73950195 C-114.7010083 486.73234131 -114.12101074 485.72518066 -113.5234375 484.6875 C-112.60413452 483.09651489 -112.60413452 483.09651489 -111.66625977 481.47338867 C-99.39048755 460.02957517 -88.59814212 437.96636839 -78.8984375 415.25 C-78.44274384 414.18359283 -78.44274384 414.18359283 -77.97784424 413.09564209 C-61.97760547 375.56563232 -48.14424736 337.22392269 -35.59771729 298.41101074 C-34.89507793 296.23961778 -34.18879335 294.06943641 -33.48193359 291.89941406 C-9.94583056 219.50597801 23.68085528 115.69875301 -11.9609375 42.5625 C-13.69305599 39.24069186 -15.44174492 36.09283938 -17.8984375 33.25 C-18.5584375 33.25 -19.2184375 33.25 -19.8984375 33.25 Z M-870.80078125 394.35546875 C-886.57340326 416.11992482 -892.79145955 444.73454277 -900.94335938 469.94921875 C-906.93763749 488.48456887 -906.93763749 488.48456887 -909.90625 496.92578125 C-916.1696816 514.81004506 -920.4987117 532.64328605 -923.8984375 551.25 C-924.13401367 552.53487305 -924.36958984 553.81974609 -924.61230469 555.14355469 C-931.30980049 592.49093142 -934.88846019 630.40964272 -935.24890137 668.34890747 C-935.26489615 669.91414862 -935.28682476 671.47934383 -935.31555176 673.04440308 C-935.54720042 687.03984308 -933.93436532 701.23790709 -927.1484375 713.75 C-926.80409668 714.40524658 -926.45975586 715.06049316 -926.10498047 715.7355957 C-921.05955444 724.99930994 -915.07614041 731.72373512 -904.8984375 735.25 C-901.17975853 736.01938186 -899.24822855 736.10059146 -896.0078125 734.05859375 C-885.16961773 725.20455669 -878.29530948 713.43883191 -871.8984375 701.25 C-871.57020996 700.63592285 -871.24198242 700.0218457 -870.90380859 699.38916016 C-853.63939306 666.97130024 -841.86449117 631.50848072 -831.8984375 596.25 C-831.60098633 595.20730957 -831.30353516 594.16461914 -830.99707031 593.09033203 C-825.238898 572.47135192 -822.5486484 551.15976837 -819.45159912 530.01849365 C-818.84161873 525.8629139 -818.22700766 521.7080334 -817.61181641 517.55322266 C-816.33492138 508.92502303 -815.06770397 500.29542662 -813.80537415 491.66508484 C-813.46172932 489.3179083 -813.11699414 486.97089385 -812.77209473 484.62390137 C-812.22521645 480.89912012 -811.6830631 477.17367861 -811.1444149 473.44769859 C-810.94352507 472.06254718 -810.74119598 470.67760363 -810.53733253 469.29288673 C-810.25596091 467.37952196 -809.98051346 465.46528884 -809.70532227 463.55102539 C-809.54878677 462.47430069 -809.39225128 461.39757599 -809.23097229 460.28822327 C-808.39810515 453.74029639 -808.39810515 453.74029639 -811.19921875 447.99609375 C-812.18846216 446.88005812 -813.19294758 445.77737824 -814.2109375 444.6875 C-820.08353651 438.20869722 -823.16085854 433.50917678 -824.3359375 424.75 C-826.47806475 410.69468865 -829.62797744 396.74070014 -841.1875 387.40625 C-852.27038843 379.91644412 -862.99651112 385.04748568 -870.80078125 394.35546875 Z " fill="#15734F" transform="translate(1539.8984375,60.75)"/>
<path d="M0 0 C4.86089126 -0.00561172 9.72152001 -0.03001863 14.58232689 -0.05797195 C18.39831331 -0.0766041 22.21423393 -0.08180292 26.03026199 -0.08333588 C27.82505452 -0.08633086 29.61984678 -0.09425027 31.41459274 -0.10752106 C54.26369576 -0.26531233 54.26369576 -0.26531233 63.36132812 7.24023438 C66.3008976 11.90299975 65.95693587 16.91746132 65.36132812 22.24023438 C64.04938147 26.52959291 61.81829685 28.90870805 58.17382812 31.55273438 C48.75752172 36.17232901 38.40939548 35.5513749 28.20117188 35.58398438 C26.48478432 35.5968926 24.76840417 35.61081854 23.05203247 35.62568665 C19.38562597 35.65621619 15.71923475 35.68168205 12.05276489 35.70327759 C2.24650758 35.76299032 -7.55934854 35.86814582 -17.36523438 35.97070312 C-18.35795034 35.98087652 -19.35066631 35.99104992 -20.37346458 36.0015316 C-101.89489137 36.84569398 -183.33203699 40.9264736 -264.66651344 46.3360157 C-275.98556768 47.08791619 -287.3054631 47.7431096 -298.63867188 48.24023438 C-298.69096451 48.84360123 -298.74325714 49.44696808 -298.7971344 50.06861877 C-299.37004638 56.26120829 -300.25955749 62.33516199 -301.35351562 68.45507812 C-301.70823205 70.48364211 -302.06245471 72.51229249 -302.41625977 74.54101562 C-302.60431183 75.61432129 -302.79236389 76.68762695 -302.9861145 77.79345703 C-315.56755554 149.95438208 -324.87216681 222.65876291 -334.63867188 295.24023438 C-334.78113342 296.29830544 -334.92359497 297.3563765 -335.07037354 298.44651031 C-345.77560054 377.96514208 -355.97608764 457.61631067 -366.63867188 595.24023438 C-366.69877441 596.10344299 -366.75887695 596.96665161 -366.82080078 597.85601807 C-367.60232152 609.15117679 -367.88078718 620.42088654 -367.88867188 631.74023438 C-367.88934662 632.62796539 -367.89002136 633.51569641 -367.89071655 634.43032837 C-367.85469332 664.6450639 -363.7847566 694.3613579 -359.63867188 724.24023438 C-366.89262786 723.11816088 -373.59240424 721.47167842 -380.45117188 718.86523438 C-381.25748047 718.57390625 -382.06378906 718.28257812 -382.89453125 717.98242188 C-394.85588554 713.5225874 -401.14022433 705.93185856 -406.48950195 694.51611328 C-417.11466558 670.57703977 -418.18228093 645.26215424 -418.02539444 619.43328094 C-418.01344522 617.3252496 -418.00648846 615.21724827 -418.00057983 613.10919189 C-417.8984857 581.44110703 -416.57368885 549.84690399 -414.63867188 518.24023438 C-414.59644249 517.54932961 -414.5542131 516.85842484 -414.51070404 516.14658356 C-410.81656337 455.92561046 -405.33222445 395.86159855 -399.50976562 335.81445312 C-399.44045043 335.09953571 -399.37113523 334.3846183 -399.29971957 333.64803672 C-398.51514389 325.55649772 -397.72985477 317.46502797 -396.94448853 309.37356567 C-396.87287067 308.63567238 -396.80125282 307.89777908 -396.72746474 307.13752538 C-396.36597795 303.41314041 -396.00441739 299.68876262 -395.6427269 295.96439743 C-392.2083152 260.59446286 -388.7824838 225.22725017 -385.95117188 189.80273438 C-385.89415478 189.0932452 -385.83713768 188.38375603 -385.77839279 187.65276718 C-385.01812671 178.18518606 -384.30880408 168.71462253 -383.63867188 159.24023438 C-383.54409698 157.93303436 -383.44952209 156.62583435 -383.3520813 155.27902222 C-382.10866463 137.99322351 -381.33234434 120.7705715 -381.43286133 103.43334961 C-381.45152108 100.11564652 -381.45336677 96.79821979 -381.453125 93.48046875 C-381.47194886 82.3611195 -381.66100628 71.32081951 -382.63867188 60.24023438 C-420.09823719 59.80790305 -457.25987274 60.68681855 -494.63867188 63.24023438 C-496.56477295 63.37105408 -496.56477295 63.37105408 -498.52978516 63.5045166 C-632.81052752 68.33701211 -632.81052752 68.33701211 -772.40820312 117.10742188 C-776.08581579 121.53433735 -778.08956279 125.41164448 -777.63867188 131.24023438 C-776.4588126 138.27073601 -773.34349649 143.02494656 -767.63867188 147.24023438 C-700.81035651 187.94386423 -572.18628153 161.63823551 -457.94384766 138.03125 C-452.51691999 136.73244326 -447.0780362 135.48576184 -441.63867188 134.24023438 C-443.76627224 139.7745078 -446.88421279 143.68869767 -450.63867188 148.24023438 C-451.22648437 148.97628906 -451.81429688 149.71234375 -452.41992188 150.47070312 C-464.03853672 164.37857894 -478.20221957 171.82706678 -495.56054688 176.10351562 C-497.1383065 176.49404869 -497.1383065 176.49404869 -498.74794006 176.89247131 C-510.12438099 179.66477026 -521.5754891 181.98676821 -533.07617188 184.17773438 C-534.17908569 184.38923126 -535.28199951 184.60072815 -536.41833496 184.81863403 C-571.18224515 191.45207967 -606.3109315 196.78881429 -641.63867188 199.24023438 C-642.6138829 199.30911865 -642.6138829 199.30911865 -643.60879517 199.37939453 C-656.88403501 200.29315526 -670.14742834 200.48267587 -683.45117188 200.49023438 C-685.0653299 200.49124649 -685.0653299 200.49124649 -686.71209717 200.49227905 C-724.07270848 200.45521289 -768.49929898 199.08859214 -797.29101562 171.84179688 C-812.05621358 155.47969731 -816.8271922 135.01987105 -817.01367188 113.49023438 C-817.02760986 112.46124023 -817.04154785 111.43224609 -817.0559082 110.37207031 C-816.95746614 94.38098799 -811.66549808 80.41144303 -800.52929688 68.84179688 C-782.05558574 52.21545685 -758.36863641 47.20021075 -734.43945312 44.42773438 C-732.33413725 44.17536943 -730.22894097 43.92200511 -728.12385559 43.66772461 C-723.63022009 43.12705855 -719.13581817 42.59350602 -714.64068604 42.06542969 C-707.61275013 41.23930549 -700.5873064 40.39316777 -693.56201172 39.54492188 C-575.23368774 25.28869026 -575.23368774 25.28869026 -520.63867188 21.24023438 C-519.25101136 21.13630917 -517.86335685 21.03230362 -516.47570801 20.92822266 C-422.095754 13.86835513 -327.45987176 9.82019059 -150.20117188 3.49023438 C-149.38425291 3.46324589 -148.56733394 3.4362574 -147.72565985 3.40845108 C-125.03081896 2.65874366 -102.33542463 1.92980815 -79.63867188 1.24023438 C-78.58079971 1.20790207 -77.52292755 1.17556976 -76.43299866 1.14225769 C-50.95548835 0.36684896 -25.48941562 0.02524255 0 0 Z " fill="#15734F" transform="translate(816.638671875,99.759765625)"/>
<path d="M0 0 C34.33310925 23.122043 70.99489882 45.112581 110.2890625 58.546875 C110.2890625 59.206875 110.2890625 59.866875 110.2890625 60.546875 C82.47826126 65.39269643 53.83245332 45.08375448 31.32397461 31.28442383 C19.84099856 24.24492695 8.24449384 17.41145194 -3.39953613 10.64225769 C-7.44580567 8.28895137 -11.47880603 5.91404605 -15.5078125 3.53125 C-50.31065312 -16.95669212 -84.75097829 -32.39887096 -125.87890625 -22.5234375 C-140.27980094 -18.61625898 -153.56688077 -11.324748 -164.7109375 -1.453125 C-165.37996094 -0.92589844 -166.04898438 -0.39867187 -166.73828125 0.14453125 C-186.68429799 16.21983583 -197.27480828 42.83423367 -200.7109375 67.546875 C-200.84113281 68.46855469 -200.97132813 69.39023437 -201.10546875 70.33984375 C-201.39228597 72.74528419 -201.58072803 75.12813545 -201.7109375 77.546875 C-201.76378906 78.42988281 -201.81664062 79.31289063 -201.87109375 80.22265625 C-202.43220388 98.25136865 -197.61253967 115.07574294 -185.71484375 128.859375 C-162.16124387 153.71451071 -123.07083651 158.08878348 -90.7109375 159.546875 C-85.05148163 159.68823063 -79.3911737 159.66837435 -73.73046875 159.63671875 C-72.62393857 159.63071309 -72.62393857 159.63071309 -71.49505424 159.62458611 C-64.63131082 159.58260725 -57.76792918 159.51078577 -50.90454102 159.43041992 C-12.68393458 159.00056246 17.82189516 165.19276286 51.91503906 182.89599609 C63.08144709 188.64314411 73.04532687 191.19924794 85.43359375 187.609375 C96.32384407 183.55718883 102.09559082 175.63977886 106.9140625 165.359375 C111.28286774 154.21534066 113.01310357 142.03114972 115.31640625 130.328125 C115.63872547 128.71316139 115.96288691 127.09856415 116.2890625 125.484375 C116.44552246 124.70956787 116.60198242 123.93476074 116.76318359 123.13647461 C117.79844609 118.24645565 119.20513601 113.72161367 120.9765625 109.046875 C126.57174133 94.16093627 123.64176199 81.69103867 117.2890625 67.546875 C116.9590625 66.556875 116.6290625 65.566875 116.2890625 64.546875 C122.94957698 65.71246503 126.5614332 70.26056885 130.2890625 75.546875 C139.46459204 94.43212586 133.39510655 119.54684959 127.2890625 138.546875 C151.08280562 144.29346765 172.76098458 133.22116851 192.58300781 121.14990234 C196.82371674 118.48309411 200.99893147 115.71869893 205.17236328 112.94824219 C216.5322319 105.42740645 227.02974273 99.04541841 240.2890625 95.546875 C241.07023437 95.31613281 241.85140625 95.08539062 242.65625 94.84765625 C280.28421003 84.83719896 313.49601214 107.44697717 344.72802734 124.91064453 C378.51129611 143.71919913 414.59909849 148.1198084 452.1015625 138.734375 C472.01292703 132.98654101 489.55807169 123.51189968 507.71435547 113.69482422 C516.15973039 109.13483785 524.62914414 104.68484329 533.2890625 100.546875 C533.92489258 100.23621094 534.56072266 99.92554688 535.21582031 99.60546875 C553.37244198 90.79036201 579.78316016 78.546875 600.2890625 78.546875 C600.36382813 77.64710938 600.43859375 76.74734375 600.515625 75.8203125 C604.21900281 39.58530216 621.62703618 -1.08524066 648.9765625 -25.890625 C662.80286918 -32.41246777 675.5296245 -30.51344369 689.4140625 -25.640625 C690.43371094 -25.29708984 691.45335937 -24.95355469 692.50390625 -24.59960938 C707.12189375 -19.59871891 718.09656585 -14.72127874 725.32421875 -0.40234375 C730.16292324 11.54813106 728.32506251 32.11276388 723.3515625 43.984375 C721.89755019 46.99247333 721.23098315 47.58559456 718.2890625 49.546875 C715.14621488 49.82937816 712.30979651 49.44407016 709.2890625 48.546875 C704.7801815 44.61359583 702.94397114 40.51589942 702.2890625 34.546875 C701.9769154 27.86035546 702.1361241 21.23013646 702.66015625 14.5625 C702.7523645 13.29756714 702.7523645 13.29756714 702.84643555 12.00708008 C702.97224656 10.35941822 703.11741514 8.71308879 703.28442383 7.0690918 C703.70006307 1.63588785 702.94977288 -1.14076984 699.2890625 -5.453125 C693.25641233 -11.49921092 684.65095542 -15.44923151 676.1015625 -15.953125 C667.40047683 -14.81199901 661.78443851 -10.07990196 656.2890625 -3.453125 C633.06366766 27.71779966 615.95972894 70.22586435 619.8515625 109.58203125 C621.24123351 118.99953392 624.53275609 128.5310892 632.45703125 134.44921875 C642.30552575 140.34991588 652.83450148 140.95399256 663.97265625 138.8515625 C675.27723183 135.90469614 684.23850908 130.81225485 693.09765625 123.28125 C695.2890625 121.546875 695.2890625 121.546875 697.44921875 120.5625 C699.83278949 119.24672847 700.19433736 118.01000656 701.2890625 115.546875 C703.02951521 113.05934117 704.82724186 110.62026816 706.6328125 108.1796875 C709.91898075 102.95592005 710.54805916 98.4065894 710.4765625 92.296875 C710.46689453 90.46382812 710.46689453 90.46382812 710.45703125 88.59375 C710.49599406 85.62965299 710.49599406 85.62965299 709.2890625 83.546875 C683.25511278 83.27431211 657.93326645 83.53264518 632.2890625 88.546875 C630.29023174 88.88714946 628.29062364 89.2230477 626.2890625 89.546875 C626.44680804 84.89338148 626.58110512 82.48387741 629.4140625 78.734375 C632.68987127 76.39838714 636.0882535 75.82089234 640 75.0703125 C640.98583069 74.88100914 640.98583069 74.88100914 641.99157715 74.68788147 C655.34421671 72.1724797 668.82506121 70.34972258 682.2890625 68.546875 C683.3203125 68.40830078 684.3515625 68.26972656 685.4140625 68.12695312 C699.32514791 66.35808666 713.2877639 66.34742602 727.2890625 66.296875 C728.69454346 66.28870255 728.69454346 66.28870255 730.12841797 66.28036499 C732.82795835 66.26866674 735.52701966 66.27225426 738.2265625 66.28125 C739.03609375 66.27730728 739.845625 66.27336456 740.6796875 66.26930237 C746.27001918 66.31448158 752.1330886 66.3909011 756.2890625 70.546875 C755.9140625 73.171875 755.9140625 73.171875 755.2890625 75.546875 C753.3759054 76.18253688 751.45825361 76.80467035 749.5390625 77.421875 C748.47171875 77.76992188 747.404375 78.11796875 746.3046875 78.4765625 C741.07599969 80.01125303 735.66596116 80.72383509 730.2890625 81.546875 C730.16378174 82.21106445 730.03850098 82.87525391 729.90942383 83.55957031 C723.96660282 114.64011991 723.96660282 114.64011991 712.2890625 127.546875 C711.41507813 128.56007813 711.41507813 128.56007813 710.5234375 129.59375 C697.59586293 143.64546149 678.76696409 152.59252008 659.8046875 153.76171875 C642.87838724 154.20067882 626.62701587 150.7177219 613.8515625 138.984375 C601.3827696 125.40815642 598.54889255 108.33836759 599.2890625 90.546875 C563.22014218 99.3873929 530.87564502 113.68518473 498.7590332 132.32055664 C478.54258238 143.99295004 456.37729299 151.30726988 433.2890625 154.546875 C432.37769531 154.67835938 431.46632813 154.80984375 430.52734375 154.9453125 C408.46691653 157.50806229 386.10494643 155.27320507 365.2890625 147.546875 C364.2671582 147.16789062 364.2671582 147.16789062 363.22460938 146.78125 C348.27064421 141.12673861 334.55047352 133.44578973 320.7265625 125.484375 C295.88999866 111.211108 271.72943432 100.10094058 242.5390625 107.234375 C231.62371494 110.44745226 222.55879127 115.90044777 213.12939453 122.08935547 C167.97986103 151.71469407 167.97986103 151.71469407 141.3515625 151.734375 C140.48337891 151.74662109 139.61519531 151.75886719 138.72070312 151.77148438 C133.50963154 151.78330086 129.22138108 151.24466629 124.2890625 149.546875 C124.00933594 150.2275 123.72960937 150.908125 123.44140625 151.609375 C122.57769388 153.69783705 121.7071829 155.78349309 120.83203125 157.8671875 C119.77909292 160.3782455 118.74128563 162.89238025 117.71484375 165.4140625 C111.60311691 180.18331404 103.52422725 196.53373308 88.50390625 203.890625 C82.01165531 205.81425491 76.12500817 205.62643553 69.5390625 204.546875 C68.71615723 204.41224854 67.89325195 204.27762207 67.04541016 204.13891602 C52.99761827 201.6139339 39.94550932 195.83090334 26.7890625 190.484375 C12.37733718 184.62909499 -2.19920515 179.43547005 -17.7109375 177.546875 C-18.83532227 177.4075354 -18.83532227 177.4075354 -19.98242188 177.26538086 C-29.18988607 176.28600378 -38.40148666 176.39482374 -47.6484375 176.421875 C-48.52441589 176.42276123 -49.40039429 176.42364746 -50.30291748 176.42456055 C-59.49164581 176.43547826 -68.66318129 176.44824081 -77.8359375 177.046875 C-113.60090276 179.30717511 -152.30961458 180.22552447 -181.24609375 155.62109375 C-184.52441608 152.7163747 -187.63651858 149.66487179 -190.7109375 146.546875 C-191.47148437 145.79664063 -192.23203125 145.04640625 -193.015625 144.2734375 C-210.10943715 126.38147069 -214.31920316 102.64383552 -213.953125 78.7734375 C-213.11085838 51.12874589 -201.6349439 22.54443767 -183.7109375 1.546875 C-183.29376465 1.04897461 -182.8765918 0.55107422 -182.44677734 0.03808594 C-133.07084972 -58.46662563 -54.72137984 -36.91836079 0 0 Z " fill="#EE5635" transform="translate(377.7109375,844.453125)"/>
<path d="M0 0 C0.94101563 0.00128906 1.88203125 0.00257813 2.8515625 0.00390625 C5.375 0.4375 5.375 0.4375 7.18359375 1.69921875 C9.62903225 5.26715361 8.81017245 9.30915543 8.375 13.4375 C7.82354963 15.58127848 7.22622825 17.71349058 6.59765625 19.8359375 C3.65770847 30.32662794 2.08580757 41.067549 0.375 51.8125 C0.20169159 52.88599701 0.02838318 53.95949402 -0.150177 55.06552124 C-3.11802954 73.46812186 -5.74641377 91.88925653 -7.625 110.4375 C-7.7796875 111.94642822 -7.7796875 111.94642822 -7.9375 113.48583984 C-8.65413737 121.14300924 -8.77542672 128.75015373 -8.75 136.4375 C-8.75386719 137.63761719 -8.75773437 138.83773437 -8.76171875 140.07421875 C-8.76042969 141.22535156 -8.75914063 142.37648438 -8.7578125 143.5625 C-8.75668457 144.59632813 -8.75555664 145.63015625 -8.75439453 146.6953125 C-8.63970996 149.12575987 -8.25242427 151.105143 -7.625 153.4375 C-7.31885773 152.35327507 -7.31885773 152.35327507 -7.00653076 151.24714661 C-5.06675549 144.37832759 -3.12550766 137.50992717 -1.18267441 130.64197254 C-0.18430645 127.11253057 0.81352512 123.58293893 1.81005859 120.05297852 C2.77484573 116.63555138 3.74113612 113.21855236 4.70839691 109.80182457 C5.24990461 107.88760261 5.78992215 105.97295931 6.32989502 104.05830383 C7.00481152 101.67607804 7.68568312 99.29552949 8.37316895 96.91690063 C9.05899985 94.53498157 9.72702917 92.14788471 10.37976074 89.75668335 C10.71044556 88.59134064 11.04113037 87.42599792 11.38183594 86.2253418 C11.669599 85.18347214 11.95736206 84.14160248 12.25384521 83.06816101 C13.53148904 80.07031642 14.53137375 78.98506053 17.375 77.4375 C23.78146873 77.22033157 27.56255771 79.42807568 32.78515625 82.96484375 C35.41043749 87.04789786 34.14799567 90.80937539 33.375 95.4375 C33.09274688 97.32290075 32.810504 99.20830305 32.52845764 101.09373474 C31.88549069 105.34317069 31.21116267 109.58779834 30.53173828 113.83154297 C25.03472775 141.43140043 25.03472775 141.43140043 31.375 167.4375 C34.48024186 167.13478981 35.94840864 166.93001111 38.03076172 164.52587891 C41.44758598 158.45192219 44.20400293 152.39134698 46.5 145.8125 C46.8398291 144.85029541 47.1796582 143.88809082 47.52978516 142.89672852 C52.76996944 127.79126212 55.23291303 113.35243547 56.375 97.4375 C62.18787541 94.72763296 65.04695837 93.96095695 71.375 95.4375 C73.11938477 96.74291992 73.11938477 96.74291992 74.375 98.4375 C74.0984467 105.32435174 72.47499913 111.92474061 70.9375 118.625 C68.21005477 130.96534789 66.22422784 142.77496983 66.0625 155.4375 C66.04469482 156.33484863 66.02688965 157.23219727 66.00854492 158.15673828 C66.01491456 163.3612205 66.5429743 166.8943031 69.375 171.4375 C71.28510488 171.35008146 71.28510488 171.35008146 73.375 170.4375 C83.39274598 156.42240526 88.17547537 136.34049026 92 119.8125 C93.46371238 113.49238543 95.27786276 107.57706359 97.875 101.625 C98.14779785 100.99706543 98.4205957 100.36913086 98.70166016 99.72216797 C101.49498895 93.64721218 104.95593425 87.09906385 111.375 84.4375 C115.17381798 83.8717186 116.9547934 84.2186424 120.375 86 C124.32247496 89.20732341 128.07654575 92.8405915 130.375 97.4375 C130.52140501 99.07892541 130.59596589 100.7273141 130.625 102.375 C130.66367188 103.68791016 130.66367188 103.68791016 130.703125 105.02734375 C130.375 107.4375 130.375 107.4375 129.09765625 109.234375 C126.14824925 111.2942783 122.80152497 110.83113093 119.375 110.4375 C115.875 109.4375 115.875 109.4375 113.375 108.4375 C107.08327625 119.23041743 104.90315688 131.05688149 104.375 143.4375 C104.32617676 144.459646 104.32617676 144.459646 104.27636719 145.50244141 C103.5317851 159.04252414 103.5317851 159.04252414 108.375 171.4375 C111.0950973 173.66760406 111.0950973 173.66760406 113.6875 173.375 C120.12364396 171.1298335 123.69453064 166.15365105 126.75 160.3125 C127.12793701 159.59312256 127.50587402 158.87374512 127.89526367 158.13256836 C133.32767618 147.17148421 136.29028229 135.22402102 139.375 123.4375 C139.72135498 122.13449951 139.72135498 122.13449951 140.07470703 120.80517578 C142.62200819 111.04152979 143.9854686 101.41492909 144.60498047 91.33837891 C145.17240565 83.30985081 145.17240565 83.30985081 148.375 80.4375 C153.3257603 78.78724657 157.65575409 78.5961669 162.3125 80.875 C164.375 82.4375 164.375 82.4375 165.375 83.4375 C165.60239452 87.2274087 165.43923232 90.21670141 164.375 93.875 C160.29831835 108.39817839 168.30593578 125.87259735 172.64453125 139.61474609 C172.98226563 140.68547363 173.32 141.75620117 173.66796875 142.859375 C173.9724292 143.81424805 174.27688965 144.76912109 174.59057617 145.75292969 C177.28241694 154.96534209 178.52533865 167.58611866 174.75 176.625 C173.6328125 178.61328125 173.6328125 178.61328125 172.375 180.4375 C171.93929688 181.09105469 171.50359375 181.74460937 171.0546875 182.41796875 C167.64219392 186.93998894 164.00865597 189.50187516 158.375 190.4375 C149.1942212 190.63646425 143.12486858 187.60042349 136.375 181.4375 C134.99794236 179.80677384 133.64777889 178.1508562 132.375 176.4375 C131.99988281 176.90800781 131.62476563 177.37851562 131.23828125 177.86328125 C127.11208632 182.88331186 124.10767502 185.85512663 117.5625 187.25 C110.50790139 187.88770383 104.90611068 185.83724713 99.375 181.4375 C95.07933868 176.88915272 92.34185606 171.33806817 90.375 165.4375 C89.98828125 166.24574219 89.6015625 167.05398438 89.203125 167.88671875 C88.68234375 168.95535156 88.1615625 170.02398438 87.625 171.125 C87.11453125 172.18074219 86.6040625 173.23648438 86.078125 174.32421875 C83.08588504 179.7939785 80.32199619 183.26455908 74.375 185.4375 C69.05386846 186.02873684 65.50199166 185.69349575 60.9765625 182.76953125 C56.37522196 178.94256265 53.91364856 174.17246281 52.375 168.4375 C51.715 169.4275 51.055 170.4175 50.375 171.4375 C49.42829569 172.77911526 48.46906198 174.11194372 47.5 175.4375 C47.00757813 176.118125 46.51515625 176.79875 46.0078125 177.5 C43.29950691 180.71368319 41.16298065 182.24422173 37.0625 183.25 C32.0758774 183.50355708 28.45490148 183.19337473 24.51953125 179.87109375 C16.68071742 171.59771881 14.45378064 161.8048071 13.83984375 150.73046875 C13.79686661 150.00507401 13.75388947 149.27967926 13.70960999 148.53230286 C13.5739605 146.23004647 13.44315959 143.92754442 13.3125 141.625 C13.22102382 140.05792396 13.12923035 138.4908664 13.03710938 136.92382812 C12.81273264 133.09525634 12.59270201 129.26645689 12.375 125.4375 C10.89763329 130.90968801 9.42276151 136.38254094 7.94995117 141.85595703 C7.45124556 143.70801841 6.95192178 145.55991347 6.4519043 147.41162109 C5.72271318 150.11249211 4.99582337 152.81397309 4.26953125 155.515625 C4.02776154 156.41091919 3.78599182 157.30621338 3.53689575 158.2286377 C2.29321305 162.86843282 1.10479845 167.51415262 0.00146484 172.18945312 C-0.21818436 173.11038757 -0.43783356 174.03132202 -0.66413879 174.98016357 C-1.07956213 176.73656502 -1.48505704 178.49535304 -1.87919617 180.25665283 C-3.29286526 186.21607684 -3.29286526 186.21607684 -6.625 188.4375 C-9.89273511 188.7926886 -12.15160068 188.60657118 -15.25 187.5 C-21.76928994 181.83851137 -22.65106787 172.56729433 -23.625 164.4375 C-24.00208666 159.08055551 -24.11320727 153.74242658 -24.125 148.375 C-24.12801117 147.59716156 -24.13102234 146.81932312 -24.13412476 146.01791382 C-24.12881625 123.6878262 -20.919656 101.63573071 -18.02716064 79.53527832 C-17.04202397 71.94693002 -16.11173404 64.351758 -15.19369507 56.7550354 C-14.98259363 55.01291793 -14.76958541 53.27103037 -14.55459595 51.52938843 C-13.47898595 42.79751878 -12.52271075 34.09577045 -12.046875 25.30859375 C-12.0074176 24.59787216 -11.96796021 23.88715057 -11.92730713 23.15489197 C-11.75194911 19.87410418 -11.61209887 16.59983793 -11.52050781 13.31518555 C-11.1698151 5.11803759 -11.1698151 5.11803759 -8.4140625 1.67578125 C-5.36929776 0.32397393 -3.32187472 -0.06863378 0 0 Z M152.375 123.4375 C152.19960693 123.97938965 152.02421387 124.5212793 151.84350586 125.07958984 C151.00515801 127.65899636 150.15986917 130.23604271 149.3125 132.8125 C149.00320557 133.75536865 148.69391113 134.6982373 148.37524414 135.66967773 C145.99446601 142.82520868 143.342861 149.83356291 140.33374023 156.74951172 C138.63325678 160.58890092 138.63325678 160.58890092 139.046875 164.6171875 C139.48515625 165.21789062 139.9234375 165.81859375 140.375 166.4375 C140.74238281 167.25347656 141.10976562 168.06945312 141.48828125 168.91015625 C143.25611179 172.72797922 144.69717111 175.81181179 147.8125 178.6875 C151.4034518 179.73851028 153.06637011 179.12701313 156.375 177.4375 C160.27358624 173.75550188 161.82482386 169.68918129 162.375 164.4375 C162.70973843 150.3412926 158.44611043 136.45631566 153.375 123.4375 C153.045 123.4375 152.715 123.4375 152.375 123.4375 Z " fill="#EE5635" transform="translate(1368.625,810.5625)"/>
<path d="M0 0 C3.40924404 2.72739523 5.27277116 4.70949961 6 9 C6.02172852 11.10644531 6.02172852 11.10644531 5.87890625 13.328125 C5.83056641 14.12734375 5.78222656 14.9265625 5.73242188 15.75 C5.67634766 16.575 5.62027344 17.4 5.5625 18.25 C5.51029297 19.09046875 5.45808594 19.9309375 5.40429688 20.796875 C5.27504311 22.8649352 5.13825726 24.9325222 5 27 C9.29188278 29.78779723 13.53451335 32.28889447 18.1875 34.4375 C23.34149076 36.94313243 26.40290704 39.80581407 29 45 C29.51697335 54.48427891 28.62724198 63.783845 27.5 73.1875 C26.53642838 81.83904827 25.70128948 90.41435839 25.6875 99.125 C25.68234375 99.89352295 25.6771875 100.6620459 25.671875 101.45385742 C25.71989254 105.17050061 25.88685246 106.83027869 28 110 C29.32 110 30.64 110 32 110 C39.05043241 96.6864043 44.01274268 83.56666132 47.375 68.875 C51.00837757 53.01881282 55.1817374 36.3477005 65.125 23.1875 C70.70439144 20.88296875 76.56947797 22.89012523 82.125 24.6875 C86.21900565 26.58828834 87.7195208 29.0575461 89.8125 33 C92.62019907 38.18697539 95.50446539 39.70202574 101.0234375 41.4765625 C101.67570312 41.64929688 102.32796875 41.82203125 103 42 C101.95623596 46.74042837 100.89437968 51.4745821 99.78125 56.19921875 C92.98862901 83.11019 92.98862901 83.11019 97 110 C100.50667203 109.06010984 101.78722932 108.31763099 103.83935547 105.25415039 C104.38479004 104.10938232 104.93022461 102.96461426 105.4921875 101.78515625 C105.78874237 101.16294693 106.08529724 100.54073761 106.39083862 99.89967346 C109.47912726 93.25923329 111.8726849 86.40089993 114.125 79.4375 C114.33622498 78.79168976 114.54744995 78.14587952 114.76507568 77.48049927 C123.52203369 52.8988431 123.52203369 52.8988431 123.37890625 27.30078125 C123 25 123 25 124.5625 22.6875 C127 21 127 21 129.9375 20.4375 C134.12442548 21.20652713 135.3960751 22.66208285 138 26 C138.58803131 28.80398841 138.47799243 31.4634842 138.3125 34.3125 C138.27866211 35.42334961 138.27866211 35.42334961 138.24414062 36.55664062 C138.1855815 38.37197357 138.09590886 40.18625681 138 42 C138.60328125 40.97519531 139.2065625 39.95039062 139.828125 38.89453125 C140.63521738 37.53373595 141.44252022 36.17306546 142.25 34.8125 C142.64574219 34.13896484 143.04148437 33.46542969 143.44921875 32.77148438 C149.37646484 22.81176758 149.37646484 22.81176758 153 21 C160.42296672 20.47909005 166.25978198 22.00521706 172.8125 25.5 C179.64001011 33.3028687 179.61236562 43.59722045 179.4375 53.4375 C179.43034973 54.09407593 179.42319946 54.75065186 179.41583252 55.42712402 C179.16551175 77.56407009 176.73074946 103.07527232 161.0234375 120.1484375 C156.41193074 124.51067362 152.28832169 126.88714943 145.7734375 127.05859375 C139.92916945 126.75563002 137.06412248 125.16324741 133 121 C132.34 120.01 131.68 119.02 131 118 C130.51476849 120.60316022 130.03676746 123.2073378 129.5625 125.8125 C129.42779297 126.53115234 129.29308594 127.24980469 129.15429688 127.99023438 C124.92709574 151.39449434 122.65916016 179.51768449 130.2578125 202.33984375 C131 205 131 205 130 207 C121.26596169 207.91580208 121.26596169 207.91580208 117.0625 204.875 C111.34374261 196.30876494 111.50517441 183.66732939 111.625 173.75 C111.63587646 171.91236084 111.63587646 171.91236084 111.64697266 170.03759766 C111.8694556 154.62823521 113.41850359 139.31888616 115 124 C115.11166504 122.89527344 115.22333008 121.79054688 115.33837891 120.65234375 C115.86632354 115.4318386 116.41526634 110.21444842 117 105 C116.64808594 105.72445312 116.29617188 106.44890625 115.93359375 107.1953125 C109.95908762 118.89473704 109.95908762 118.89473704 104 122 C99.56637792 123.11278657 96.50212981 122.20425619 92.3125 120.5 C88.27318461 117.94300218 86.18539876 114.14923636 84 110 C81.99129343 112.53731356 80.31977373 115.15210385 78.6875 117.9375 C75.73718223 122.71505385 72.45411713 126.18196096 67 128 C61.74234055 128.39680449 58.43897158 127.89498146 54 125 C49.43988706 120.2326092 47 116.63752531 47 110 C46.34 110 45.68 110 45 110 C44.7215625 110.99 44.7215625 110.99 44.4375 112 C42.34576951 116.36535059 39.77934369 119.93806597 36 123 C32.08231392 124.19266744 28.7805587 123.25487631 24.9375 122 C18.97826984 117.9426518 15.09032191 113.60323496 13.40310669 106.48753357 C12.5816989 101.41870317 12.78627474 96.30047638 12.83203125 91.1796875 C12.82635741 88.68098576 12.81914994 86.18228712 12.81054688 83.68359375 C12.80636232 79.7683258 12.81267494 75.85410881 12.84545898 71.93896484 C12.87233523 68.14346765 12.85560025 64.35016206 12.83203125 60.5546875 C12.85256058 59.38582001 12.8730899 58.21695251 12.89424133 57.01266479 C12.93100288 51.11004682 12.93100288 51.11004682 10.49154663 45.925354 C7.75556488 43.49675914 5.48075003 42.16025001 2 41 C1.9071875 42.7015625 1.9071875 42.7015625 1.8125 44.4375 C1.27285198 49.34907909 0.00714283 53.95970609 -1.375 58.6875 C-1.58406982 59.41187256 -1.79313965 60.13624512 -2.00854492 60.88256836 C-3.29602159 65.16646153 -4.86928573 69.04384923 -7 73 C-13.875 72.125 -13.875 72.125 -15 71 C-15.67758592 63.35598385 -13.14607071 56.28079695 -11.1328125 48.98046875 C-8.73313734 39.91883826 -7.97135838 33.04252836 -11.0625 24.0625 C-13.27792444 16.78773749 -13.8339309 11.00130378 -10.625 4 C-7.45374199 0.09691322 -4.86655182 -0.68131726 0 0 Z M157 32 C153.64768412 35.39136969 151.94175469 39.02395065 150.1953125 43.41796875 C149.95052658 44.02851105 149.70574066 44.63905334 149.45353699 45.26809692 C148.6676683 47.23754978 147.89546199 49.21197408 147.125 51.1875 C146.58883325 52.54778888 146.05261884 53.90805898 145.51635742 55.26831055 C142.65281385 62.56881469 139.84342696 69.88904746 137.3125 77.3125 C137.08127441 77.97854248 136.85004883 78.64458496 136.61181641 79.33081055 C135.09181745 83.98067422 133.73343434 89.07006021 134 94 C136.39583651 96.81331378 136.39583651 96.81331378 139 99 C138.875 101.0625 138.875 101.0625 138 103 C137.06608997 104.81656815 137.06608997 104.81656815 137 107 C138.76349425 110.93394871 139.859384 113.23958934 143.4375 115.625 C146.04327373 116.22528482 146.04327373 116.22528482 148.5 115 C159.94004774 105.84796181 163.77236628 90.03717653 165.6953125 76.07128906 C168.46275047 53.87228403 168.46275047 53.87228403 162.67724609 33.26098633 C160.8168641 31.59937976 160.8168641 31.59937976 157 32 Z M75 36 C71.9928106 39.45777419 70.21143078 42.46286838 68.74609375 46.796875 C68.36775391 47.91175293 67.98941406 49.02663086 67.59960938 50.17529297 C67.21611328 51.35494629 66.83261719 52.53459961 66.4375 53.75 C66.03982422 54.96703613 65.64214844 56.18407227 65.23242188 57.43798828 C61.12308187 70.31813675 58.98784019 82.58765601 58.125 96.0625 C58.063125 96.93181152 58.00125 97.80112305 57.9375 98.69677734 C57.66625078 104.54332819 58.35841044 108.73443148 61 114 C63.01979579 115.55966008 63.01979579 115.55966008 65 116 C77.62698491 99.47745592 85.67202453 70.90030663 84 50 C83.34 49.34 82.68 48.68 82 48 C81.21852997 45.45807551 80.60022845 42.89733238 79.9765625 40.3125 C79.19420152 37.84119258 79.19420152 37.84119258 76.8984375 36.6875 C76.27195312 36.460625 75.64546875 36.23375 75 36 Z " fill="#EE5635" transform="translate(1147,874)"/>
<path d="M0 0 C9.39347832 7.68557317 13.36696683 16.23326837 14.75 28.25 C15.56583293 42.05640336 14.9585648 57.15409422 5.75 68.25 C-0.66469688 74.49520285 -7.43864685 76.52849511 -16.375 76.625 C-30.4201993 76.38929577 -40.74892742 71.4204762 -50.9375 62 C-60.00468626 52.48266974 -65.70189419 40.96705869 -65.44921875 27.7890625 C-64.6551669 17.6687938 -57.66234562 10.05571964 -50.23828125 3.65234375 C-34.41057932 -8.56100215 -17.8002342 -9.58474149 0 0 Z " fill="#EF5635" transform="translate(1309.25,158.75)"/>
<path d="M0 0 C9.01052026 7.5331676 13.37202733 16.76404101 14.41259766 28.38085938 C14.50945323 30.70340638 14.53610372 33.01146826 14.51953125 35.3359375 C14.51215942 36.5731958 14.51215942 36.5731958 14.50463867 37.83544922 C14.2906322 49.11084675 12.28992264 60.16664855 4.64453125 68.86328125 C-2.73326417 75.84827738 -11.08434257 76.66658768 -20.9453125 76.4296875 C-31.45552566 75.49070399 -39.72834117 71.7921615 -47.79296875 65.0859375 C-48.416875 64.57417969 -49.04078125 64.06242187 -49.68359375 63.53515625 C-59.31702933 54.79129468 -65.48990249 42.4320677 -66.23046875 29.4609375 C-65.84808506 20.52271884 -60.78061445 14.26306566 -54.79296875 8.0859375 C-53.93832031 7.15587891 -53.93832031 7.15587891 -53.06640625 6.20703125 C-39.27030501 -8.37651869 -17.07804497 -11.70383501 0 0 Z " fill="#EF5635" transform="translate(969.79296875,158.9140625)"/>
<path d="M0 0 C1.16917969 -0.02900391 2.33835937 -0.05800781 3.54296875 -0.08789062 C19.41353015 -0.20238413 33.24116137 6.02480507 44.71484375 16.8984375 C56.57334569 29.42588058 61.35644356 43.58580185 61.375 60.5 C61.39949219 61.65564453 61.42398437 62.81128906 61.44921875 64.00195312 C61.50462977 80.44979137 54.6089691 94.88248943 43.12109375 106.51171875 C30.77346839 118.14113771 13.77605161 122.80540606 -2.8046875 122.51953125 C-17.39585834 121.97973079 -32.552298 115.6232471 -43 105.3125 C-57.21559212 89.17138453 -61.01877443 72.86080755 -60.19091797 51.99951172 C-59.25443786 38.81933263 -51.8631005 24.12594944 -42 15.3125 C-28.88383533 4.90759621 -16.65980317 0.13420894 0 0 Z M-37.0703125 26.94140625 C-46.73218451 38.81338258 -50.33221262 52.1763839 -49.22314453 67.28613281 C-47.81784047 80.04764675 -41.00724182 92.26627324 -31 100.3125 C-19.20154442 108.69082008 -5.56332589 113.1563817 8.890625 110.8515625 C23.48301636 107.60456442 35.06655633 100.59618915 43.39453125 88.1328125 C50.29279794 76.0146895 52.92015643 63.04237858 49.875 49.375 C45.91989907 35.17342828 38.56786428 24.41449584 25.875 16.81640625 C4.6057987 5.69053329 -20.46813458 8.91010312 -37.0703125 26.94140625 Z " fill="#15724E" transform="translate(1681,-0.3125)"/>
<path d="M0 0 C-0.56002831 5.56472574 -2.6345243 9.9267939 -5.0625 14.875 C-5.43955078 15.65875 -5.81660156 16.4425 -6.20507812 17.25 C-7.12993234 19.16995053 -8.06403978 21.085439 -9 23 C-4.07072683 25.53537816 0.87698909 27.82920443 6.00073242 29.94067383 C30.57079167 40.10073168 57.74778682 52.9975746 76 73 C76 73.66 76 74.32 76 75 C71.96430788 73.73125771 68.23881736 72.23937022 64.45703125 70.34765625 C63.39709961 69.82381348 62.33716797 69.2999707 61.24511719 68.76025391 C59.54597168 67.91986572 59.54597168 67.91986572 57.8125 67.0625 C22.77259843 49.72348713 22.77259843 49.72348713 -15 41 C-15.99251074 44.93425641 -16.96648456 48.87288818 -17.9375 52.8125 C-18.21529297 53.91271484 -18.49308594 55.01292969 -18.77929688 56.14648438 C-20.48225804 63.10195228 -21.5910685 69.8486418 -22 77 C-20.8346875 77.37769531 -19.669375 77.75539063 -18.46875 78.14453125 C8.63087302 87.14876237 34.08473785 99.53408712 56 118 C57.19302734 118.99966797 57.19302734 118.99966797 58.41015625 120.01953125 C59.95402421 121.33013089 61.48041657 122.66131936 63 124 C59.10591971 125.29802676 58.19483375 124.41886199 54.56640625 122.640625 C53.45668457 122.10711426 52.34696289 121.57360352 51.20361328 121.02392578 C50.6113092 120.73487366 50.01900513 120.44582153 49.40875244 120.14801025 C25.42472984 108.48227173 0.63680716 99.32480205 -25 92 C-25.33 100.91 -25.66 109.82 -26 119 C-29.63 118.34 -33.26 117.68 -37 117 C-38.99907671 116.66117344 -40.99855726 116.32455828 -43 116 C-43.88888551 77.43224556 -35.77708892 32.61668278 -8.1875 3.625 C-4.56909091 0 -4.56909091 0 0 0 Z " fill="#ED5534" transform="translate(413,881)"/>
<path d="M0 0 C1.953125 0.21484375 1.953125 0.21484375 4 1 C4.96953853 2.97370344 5.91314154 4.96328867 6.7421875 7 C14.469596 25.43058921 23.77038798 40.16129477 42.93261719 48.21386719 C59.95856274 54.68806944 77.78221975 56.17074966 95.80819702 56.83343506 C157.55768665 59.16649612 157.55768665 59.16649612 172 73 C172 74.32 172 75.64 172 77 C170.54107996 76.88204476 169.08288823 76.75508849 167.625 76.625 C166.81289063 76.55539062 166.00078125 76.48578125 165.1640625 76.4140625 C162.54035311 76.07071288 160.06881248 75.58370272 157.49047852 75.01367188 C151.98413978 73.90545713 146.59325741 73.54998878 140.98828125 73.3671875 C139.95367264 73.32882782 138.91906403 73.29046814 137.85310364 73.25094604 C127.0686566 72.89449149 116.29251673 72.99253117 105.50469971 73.0970459 C36.43579078 73.67909084 36.43579078 73.67909084 15.125 53.34765625 C3.62314135 40.64063961 -2.33825259 26.09514149 -3 9 C-2.27619048 2.27619048 -2.27619048 2.27619048 0 0 Z " fill="#EE5635" transform="translate(191,914)"/>
<path d="M0 0 C39.86486486 0 39.86486486 0 47 6 C50.81489851 10.91921124 51.76880057 14.99800587 51.50390625 21.21875 C50.44394007 27.06910597 47.45361842 31.29643079 42.59765625 34.66796875 C40.43233013 35.88917163 38.27260719 36.9950026 36 38 C36.66 38.598125 37.32 39.19625 38 39.8125 C43.56776873 45.41172505 56 58.91036665 56 67 C51.12392155 67.8012657 46.84314858 68.10640894 42 67 C38.29146004 63.17556816 36.29304348 58.74037527 34 54 C32.88678464 52.27023459 31.7449235 50.55821463 30.5625 48.875 C28.8998782 46.47393855 27.93585352 44.80756056 27 42 C21.1846148 39.39756764 21.1846148 39.39756764 11 39 C11 48.24 11 57.48 11 67 C7.37 67 3.74 67 0 67 C0 44.89 0 22.78 0 0 Z M11 10 C11 16.27 11 22.54 11 29 C14.9909375 29.061875 14.9909375 29.061875 19.0625 29.125 C20.29818726 29.15231201 20.29818726 29.15231201 21.55883789 29.18017578 C27.5054191 29.22432475 32.88373686 28.95347367 37.4375 24.75 C39.33531662 21.40984276 39.70876118 19.78005961 39 16 C36.44975635 12.89835231 34.82300753 11.27433584 31 10 C29.44578271 9.91893314 27.88832973 9.89243102 26.33203125 9.90234375 C25.43935547 9.90556641 24.54667969 9.90878906 23.62695312 9.91210938 C22.69818359 9.92048828 21.76941406 9.92886719 20.8125 9.9375 C19.40194336 9.94426758 19.40194336 9.94426758 17.96289062 9.95117188 C15.64189992 9.96295355 13.32094193 9.98088886 11 10 Z " fill="#15734F" transform="translate(1655,28)"/>
<path d="M0 0 C1.87509568 1.62355846 3.72664346 3.26526272 5.5546875 4.94140625 C1.90920038 6.15656862 1.03674852 5.61420056 -2.46875 4.24609375 C-3.47969727 3.86203369 -4.49064453 3.47797363 -5.53222656 3.08227539 C-7.1598291 2.45567017 -7.1598291 2.45567017 -8.8203125 1.81640625 C-20.22267018 -2.43190215 -31.53150837 -5.63881187 -43.4453125 -8.05859375 C-44.55003906 -8.30351563 -45.65476562 -8.5484375 -46.79296875 -8.80078125 C-76.69605343 -14.55288976 -106.84140605 -6.16633008 -134.4453125 4.94140625 C-128.5016882 -8.43174842 -113.32475072 -16.00304153 -100.4375 -21.296875 C-95.86795189 -23.04405516 -91.25483647 -24.20812915 -86.4453125 -25.05859375 C-85.7440625 -25.1875 -85.0428125 -25.31640625 -84.3203125 -25.44921875 C-55.0173723 -29.93918539 -22.3147107 -18.78570693 0 0 Z " fill="#ED5534" transform="translate(350.4453125,854.05859375)"/>
<path d="M0 0 C2.93423195 1.79646854 4.47205355 2.9441071 6 6 C6.48139948 11.34274507 6.81113075 16.27634716 4.5 21.1875 C1.06817613 23.67557231 -1.78824468 24.27644726 -6 24 C-11.36336752 22.1434497 -14.47249444 19.05501111 -17 14 C-17.59968751 8.72274989 -16.27164725 6.11292798 -13 2 C-8.76447144 -0.82368571 -4.97522686 -0.66653757 0 0 Z " fill="#EE5635" transform="translate(1445,836)"/>
</svg>
